<svg width="522" height="612" viewBox="0 0 522 612" fill="none" xmlns="http://www.w3.org/2000/svg">
<path d="M521.672 0.0488804H400.898V185.906C399.784 267.018 336.925 333.039 260.836 333.039C184.746 333.039 120.677 266.041 120.677 183.66V154.702H0V183.66C0 334.797 116.993 457.709 260.836 457.709C270.723 457.709 280.513 456.928 290.303 455.756C242.323 492.478 180.433 509.667 118.69 502.196L108.512 500.975L95.7659 607.919L105.943 609.14C121.258 610.995 136.33 611.923 151.209 611.923C317.442 611.923 452.513 498.436 482.27 327.961C506.987 286.16 520.751 237.767 521.575 188.055L521.672 0V0.0488804Z" fill="black" fill-opacity="0.03"/>
<path d="M33.4771 111.925H181.827C192.683 111.925 201.552 102.597 201.552 91.0728V63.3359C201.552 52.3485 193.797 42.7773 183.523 41.0681L35.1732 16.0658C24.8018 14.3078 14.9632 16.6029 8.22664 22.3651C3.04094 26.7601 0.230469 32.8642 0.230469 39.4566V84.5293C0.230469 99.6186 15.1575 111.925 33.4771 111.925Z" fill="black" fill-opacity="0.03"/>
</svg>
