<svg width="24" height="24" viewBox="0 0 24 24" fill="none" xmlns="http://www.w3.org/2000/svg">
<path d="M18.75 12.75H5.25C4.83 12.75 4.5 12.42 4.5 12C4.5 11.58 4.83 11.25 5.25 11.25H18.75C19.17 11.25 19.5 11.58 19.5 12C19.5 12.42 19.17 12.75 18.75 12.75Z" fill="#6D9860"/>
<path d="M9 18C8.90164 18.0012 8.80411 17.9818 8.71369 17.9431C8.62328 17.9043 8.54197 17.8471 8.475 17.775L3.225 12.525C2.925 12.225 2.925 11.76 3.225 11.46L8.475 6.225C8.775 5.925 9.24 5.925 9.54 6.225C9.84 6.525 9.84 6.99 9.54 7.29L4.815 12.015L9.54 16.74C9.84 17.04 9.84 17.505 9.54 17.805C9.39 17.955 9.195 18.03 9.015 18.03L9 18Z" fill="#6D9860"/>
</svg>
