<svg width="20" height="20" viewBox="0 0 20 20" fill="none" xmlns="http://www.w3.org/2000/svg">
<path d="M16.301 2.77601C16.4293 2.69044 16.5833 2.652 16.7368 2.66724C16.8903 2.68248 17.0337 2.75045 17.1427 2.85958C17.2516 2.96871 17.3194 3.11224 17.3344 3.26573C17.3494 3.41922 17.3108 3.57317 17.225 3.70135L17.1397 3.80535L10.9437 10L17.1397 16.196L17.225 16.3C17.31 16.4282 17.348 16.5819 17.3327 16.7349C17.3173 16.8879 17.2495 17.031 17.1407 17.1397C17.032 17.2485 16.8889 17.3163 16.7359 17.3317C16.5829 17.347 16.4292 17.309 16.301 17.224L16.197 17.1387L10.001 10.9427L3.80635 17.1387C3.74485 17.2024 3.67129 17.2531 3.58995 17.2881C3.50862 17.323 3.42114 17.3414 3.33262 17.3422C3.2441 17.3429 3.15631 17.3261 3.07438 17.2926C2.99245 17.259 2.91801 17.2095 2.85542 17.1469C2.79282 17.0843 2.74332 17.0099 2.7098 16.928C2.67628 16.8461 2.65941 16.7583 2.66018 16.6697C2.66095 16.5812 2.67934 16.4937 2.71428 16.4124C2.74922 16.3311 2.80001 16.2575 2.86368 16.196L9.05835 10L2.86368 3.80535L2.77702 3.70135C2.69065 3.57307 2.65157 3.41876 2.66645 3.26484C2.68134 3.11092 2.74927 2.96696 2.85862 2.85762C2.96797 2.74827 3.11192 2.68034 3.26584 2.66545C3.41976 2.65056 3.57407 2.68965 3.70235 2.77601L3.80635 2.86268L10.001 9.05735L16.197 2.86268L16.301 2.77601Z" fill="#808080"/>
</svg>
