<svg width="58" height="60" viewBox="0 0 58 60" fill="none" xmlns="http://www.w3.org/2000/svg">
<path d="M52.39 47.5264C55.563 42.908 57.4215 37.3159 57.4215 31.2889C57.4215 15.4324 44.5672 2.57812 28.7107 2.57812C12.8542 2.57812 0 15.4324 0 31.2889C0 37.3185 1.86012 42.9129 5.03578 47.5325L52.39 47.5264Z" fill="#48A23F"/>
<path d="M28.5549 2.17188C21.8913 2.17188 16.4701 7.59309 16.4701 14.2567C16.4855 14.4887 16.4272 14.6143 16.5436 14.6982C16.62 14.7532 16.6822 14.8255 16.7252 14.9093C16.7683 14.993 16.7908 15.0858 16.7911 15.1799V15.8648C16.7911 16.4862 17.5266 16.7991 17.6244 16.4955C17.8713 15.7286 18.5544 15.6638 18.8408 15.6686C18.8492 15.6687 18.8575 15.6692 18.8663 15.6687C19.1018 15.6696 19.3316 15.7409 19.5262 15.8736C19.549 15.889 19.5751 15.8989 19.6024 15.9025C19.6296 15.9061 19.6574 15.9033 19.6834 15.8943C19.7094 15.8853 19.733 15.8703 19.7522 15.8506C19.7714 15.8309 19.7858 15.807 19.7941 15.7807C19.8978 15.4541 19.9387 15.1109 19.9146 14.7691C19.7898 13.0693 19.8823 10.082 21.9046 9.17195C23.7098 8.35879 25.5275 8.92234 26.7222 9.15121C27.3973 9.34773 28.5095 9.82059 30.0689 9.30191C31.5355 8.81406 33.6461 8.39547 35.3721 9.17184C37.3905 10.0803 37.4858 13.0599 37.3629 14.7554C37.3404 15.068 37.3722 15.3827 37.4574 15.6904C37.4645 15.7157 37.477 15.7391 37.4942 15.7589C37.5115 15.7788 37.5329 15.7945 37.5569 15.8051C37.581 15.8156 37.6071 15.8207 37.6333 15.8199C37.6596 15.8191 37.6853 15.8124 37.7087 15.8004C38.3334 15.479 39.2384 15.7291 39.4855 16.4953C39.4986 16.536 39.526 16.5705 39.5625 16.5925C39.5991 16.6145 39.6424 16.6226 39.6845 16.6152C40.052 16.5502 40.3188 16.2346 40.3188 15.8646V15.1798C40.3188 14.99 40.4112 14.8098 40.5663 14.698C40.683 14.6139 40.6244 14.4864 40.6398 14.2566C40.6398 7.59309 35.2186 2.17188 28.5549 2.17188Z" fill="#41416B"/>
<path d="M28.2193 2.56867C28.349 2.47844 28.3877 2.31332 28.3307 2.1748C21.7702 2.2948 16.4701 7.66809 16.4701 14.2567C16.4855 14.4887 16.4272 14.6143 16.5436 14.6982C16.62 14.7532 16.6822 14.8255 16.7252 14.9093C16.7683 14.993 16.7908 15.0858 16.7911 15.1799V15.8648C16.7911 16.4862 17.5266 16.7991 17.6244 16.4955C17.8713 15.7286 18.5544 15.6638 18.8408 15.6686C18.8492 15.6687 18.8575 15.6692 18.8663 15.6687C19.1018 15.6696 19.3316 15.7409 19.5262 15.8736C19.549 15.889 19.5751 15.8989 19.6024 15.9025C19.6296 15.9061 19.6574 15.9033 19.6834 15.8943C19.7094 15.8853 19.733 15.8703 19.7522 15.8506C19.7714 15.8309 19.7858 15.807 19.7941 15.7807C19.8978 15.4541 19.9387 15.1109 19.9146 14.7691C19.7898 13.0693 19.8823 10.082 21.9046 9.17195C23.6909 8.36734 25.4891 8.91051 26.6841 9.14371L26.7637 8.97918C26.7638 8.97918 24.4787 5.16965 28.2193 2.56867Z" fill="#35355E"/>
<path d="M4.95312 47.4157C10.1191 55.011 18.8313 60.0001 28.7094 60.0001C38.5902 60.0001 47.3043 55.0084 52.4698 47.4096C51.7623 45.1512 50.4573 42.941 48.082 41.7183L48.0827 41.7166C47.9227 41.6405 47.7096 41.5283 47.3391 41.3831C39.7187 37.9956 38.8406 38.1475 38.0681 37.8896C38.0914 37.9126 38.1123 37.938 38.1277 37.9687C38.1004 38.1973 38.2469 38.1598 37.7102 39.5395C36.5977 42.3 34.575 44.7243 32.2309 46.5779C32.1158 46.669 31.9749 46.7211 31.8283 46.7269C31.6817 46.7326 31.5371 46.6916 31.4154 46.6098C31.0111 46.3398 30.2995 48.8899 30.338 49.6136C30.3516 50.0477 30.3414 49.5312 30.345 55.431C30.345 55.6635 30.1524 55.8526 29.9157 55.8526H27.5096C27.273 55.8526 27.0804 55.6635 27.0804 55.431C27.084 49.5313 27.0737 50.0471 27.0873 49.6136C27.0875 49.6084 27.0875 49.6032 27.087 49.5981C26.988 48.3224 26.3754 46.3658 26.01 46.6098C25.8882 46.6916 25.7436 46.7326 25.597 46.7269C25.4504 46.7212 25.3095 46.669 25.1945 46.5779C22.8504 44.7241 20.8276 42.3 19.7151 39.5395C19.1783 38.1598 19.3249 38.1973 19.2976 37.9687C19.313 37.938 19.3339 37.9126 19.3571 37.8896C18.5846 38.1475 17.7066 37.9956 10.0862 41.3831C9.71574 41.5283 9.50246 41.6403 9.3425 41.7166L9.34332 41.7183C6.9657 42.9421 5.66047 45.1552 4.95312 47.4157Z" fill="#FE860A"/>
<path d="M19.2972 37.9687C19.3126 37.9393 19.3327 37.9126 19.3568 37.8896C18.5843 38.1475 17.7063 37.9956 10.0858 41.3831C9.71539 41.5283 9.50211 41.6403 9.34215 41.7166L9.34297 41.7183C6.9657 42.9421 5.66047 45.1552 4.95312 47.4157C6.8694 50.2325 9.26911 52.6879 12.0412 54.6682L12.9668 51.6141C13.1621 50.9694 13.4899 50.3726 13.929 49.8618C14.3682 49.351 14.9091 48.9375 15.5172 48.6477L22.3637 45.3851V43.851C21.2613 42.549 20.3429 41.0979 19.7149 39.5394C19.1778 38.1598 19.3244 38.1973 19.2972 37.9687Z" fill="#FE7701"/>
<path d="M21.6599 35.944L21.7876 36.6475L21.7916 36.6642C21.8286 36.8259 21.8707 36.9887 21.9168 37.148L21.9239 37.1722C21.9393 37.2253 21.9557 37.2793 21.9722 37.3322L21.9823 37.3645C22 37.42 22.0182 37.4764 22.038 37.5354L22.0447 37.5548C22.4655 38.7908 23.3849 40.5922 25.3732 42.1551C25.8886 42.5603 26.4518 42.9328 27.0472 43.262C27.3146 43.4099 27.5095 43.6348 27.6108 43.9124C27.6175 43.9308 27.6277 43.9478 27.6407 43.9626C27.9543 44.3171 28.244 44.6921 28.5076 45.0851C28.5659 45.1714 28.7089 45.1714 28.7668 45.0851C29.0309 44.6913 29.3212 44.3158 29.6358 43.961C29.6489 43.9463 29.659 43.9293 29.6657 43.9109C29.7674 43.6339 29.9619 43.4095 30.2284 43.262C34.5042 40.8971 35.4237 37.4111 35.6194 35.9186C35.096 34.7204 34.9289 33.2391 34.8898 32.1021C34.2582 32.8376 33.5955 33.4528 32.9623 33.9446C31.7285 34.9027 30.206 35.423 28.6379 35.423C27.0698 35.423 25.5473 34.9026 24.3136 33.9446C23.6803 33.4528 23.0175 32.8376 22.386 32.1021C22.3468 33.2391 22.1796 34.7205 21.6562 35.9187L21.6599 35.944Z" fill="#FFBD86"/>
<path d="M24.3136 33.9446C23.6803 33.4528 23.0175 32.8376 22.386 32.1021C22.3468 33.2391 22.1796 34.7205 21.6562 35.9187L21.6594 35.9442L21.7871 36.6476L21.7911 36.6643C21.8282 36.826 21.8702 36.9888 21.9163 37.1481L21.9234 37.1723C21.9388 37.2254 21.9551 37.2794 21.9717 37.3324L21.9818 37.3646C21.9995 37.4201 22.0178 37.4765 22.0376 37.5355L22.0443 37.5548C22.4651 38.7908 23.3844 40.5922 25.3727 42.1551C25.5367 42.2831 25.7039 42.4068 25.8743 42.5261C27.6178 39.5901 28.1773 36.8633 28.3568 35.4173C26.8887 35.3589 25.4735 34.8453 24.3136 33.9446Z" fill="#F6A96C"/>
<path d="M38.3603 17.1882C38.2368 16.8658 38.0896 16.5696 37.9227 16.3078C37.6374 15.8603 37.5022 15.3134 37.5416 14.7678C37.6679 13.0262 37.5634 9.96285 35.447 9.01047C33.6695 8.2109 31.5121 8.63617 30.0154 9.13398C29.1289 9.42906 28.1525 9.42894 27.2659 9.13398C25.7691 8.63617 23.6118 8.21043 21.8343 9.01047C20.9241 9.42004 19.4419 10.7145 19.7406 14.7817C19.78 15.3175 19.6443 15.8596 19.3586 16.3081C19.1965 16.5623 19.0529 16.8491 18.9317 17.1604C18.5767 18.0723 18.4619 19.0844 18.5995 20.0873L19.0959 23.6973C19.0959 29.6761 22.7132 33.1303 24.2684 34.3381C25.5097 35.3022 27.0625 35.8332 28.6407 35.8332C30.2187 35.8332 31.7716 35.3023 33.0128 34.3381C34.568 33.1305 38.1854 29.676 38.1845 23.7081L38.6817 20.0881C38.8181 19.0952 38.707 18.0924 38.3603 17.1882Z" fill="#FFBD86"/>
<path d="M28.4447 34.3382C27.3384 33.1306 24.7652 29.6762 24.7652 23.6975L24.4121 20.0874C24.3141 19.0845 24.3958 18.0725 24.6483 17.1605C24.7346 16.8491 24.8368 16.5623 24.9521 16.3081C25.1554 15.8596 25.2518 15.3176 25.2238 14.7817C25.0114 10.7145 26.0657 9.42003 26.7132 9.01046C26.7306 8.99944 26.7483 8.98948 26.7659 8.97882C25.3134 8.5594 23.4223 8.29561 21.8342 9.01046C20.9241 9.42003 19.4419 10.7145 19.7406 14.7817C19.78 15.3175 19.6443 15.8596 19.3586 16.3081C19.1965 16.5623 19.0529 16.8491 18.9317 17.1605C18.5767 18.0725 18.4619 19.0845 18.5995 20.0874L19.0959 23.6975C19.0959 29.6762 22.7132 33.1305 24.2684 34.3382C25.5097 35.3023 27.0625 35.8333 28.6407 35.8333C29.2164 35.8333 29.7885 35.7618 30.3436 35.6253C29.656 35.3875 29.0056 34.9506 28.4447 34.3382Z" fill="#F6A96C"/>
<path d="M28.7499 45.164C27.8977 43.8469 27.0576 43.1553 27.0576 43.1553L24.8867 46.642C26.4506 47.6486 26.73 50.1078 26.7798 50.9001C26.9095 48.3537 27.8738 46.4186 28.7499 45.164Z" fill="#FE860A"/>
<path d="M30.4879 55.9795V51.1517C30.4879 51.1517 30.5151 47.8498 32.3919 46.642L30.221 43.1553C30.221 43.1553 26.7617 45.9977 26.7617 51.1518V55.9796H30.4879V55.9795Z" fill="#ED6F00"/>
<path d="M27.1255 43.1255C22.796 40.731 21.9615 37.166 21.8014 35.8007C21.7731 35.5588 21.4931 35.4393 21.2968 35.5833L18.3662 37.7319C18.2097 37.8466 18.1347 38.0446 18.182 38.2325C19.348 42.8736 23.0963 46.2623 24.7487 47.5687C25.1693 47.9013 25.7826 47.8049 26.0819 47.36L27.5981 45.107C28.0593 44.4213 27.8486 43.5254 27.1255 43.1255Z" fill="#FE7701"/>
<path d="M25.4724 42.0325C22.5727 39.7532 21.9385 36.9701 21.8014 35.8005C21.7731 35.5588 21.4931 35.4393 21.2968 35.5833L18.3662 37.7319C18.2097 37.8466 18.1347 38.0446 18.182 38.2327C18.9281 41.2027 20.7314 43.6584 22.3665 45.3851C23.6646 41.1237 25.1124 41.7837 25.4724 42.0325Z" fill="#ED6F00"/>
<path d="M38.9127 37.7319L35.9821 35.5833C35.7858 35.4393 35.5059 35.5588 35.4775 35.8007C35.3174 37.166 34.4829 40.731 30.1534 43.1255C29.4303 43.5254 29.2195 44.4213 29.6809 45.107L31.1971 47.36C31.4964 47.8049 32.1099 47.9012 32.5304 47.5687C34.1827 46.2623 37.9311 42.8736 39.097 38.2325C39.1442 38.0444 39.0692 37.8465 38.9127 37.7319ZM29.5335 49.7443C29.5335 49.9385 29.4564 50.1247 29.3191 50.262C29.1818 50.3993 28.9956 50.4764 28.8014 50.4764C28.6073 50.4764 28.4211 50.3993 28.2838 50.262C28.1465 50.1247 28.0694 49.9385 28.0694 49.7443C28.0694 49.5502 28.1465 49.364 28.2838 49.2267C28.4211 49.0894 28.6073 49.0123 28.8014 49.0123C28.9956 49.0123 29.1818 49.0894 29.3191 49.2267C29.4564 49.364 29.5335 49.5502 29.5335 49.7443ZM29.3704 53.3754C29.3704 53.5695 29.2933 53.7557 29.156 53.893C29.0187 54.0303 28.8325 54.1075 28.6383 54.1075C28.4442 54.1075 28.258 54.0303 28.1207 53.893C27.9834 53.7557 27.9063 53.5695 27.9062 53.3754C27.9063 53.1812 27.9834 52.995 28.1207 52.8577C28.258 52.7204 28.4442 52.6433 28.6383 52.6433C28.8325 52.6433 29.0187 52.7204 29.156 52.8577C29.2933 52.995 29.3704 53.1812 29.3704 53.3754Z" fill="#FE7701"/>
<path d="M26.7617 55.8164V57.1842C26.7617 57.5266 27.043 57.8041 27.3898 57.8041H29.8599C30.2068 57.8041 30.488 57.5266 30.488 57.1842V55.8164H26.7617Z" fill="#ED6F00"/>
<path d="M28.5541 0C20.8182 0 14.5469 6.27117 14.5469 14.0071V15.6722H16.6459V14.2566C16.6459 7.68 21.9774 2.34855 28.5539 2.34855C35.1306 2.34855 40.4621 7.68 40.4621 14.2566V15.6722H42.5611V14.0071C42.5611 6.27117 36.29 0 28.5541 0Z" fill="#E3E7FC"/>
<path d="M14.5469 14.0071V15.6722H16.6459V14.2566C16.6459 7.7475 21.8686 2.45895 28.3521 2.35113C28.3593 2.30402 28.3564 2.25591 28.3435 2.21002C28.3307 2.16412 28.3081 2.12151 28.2775 2.085C27.9612 1.70777 27.6009 0.953086 28.5539 0C20.818 0 14.5469 6.27117 14.5469 14.0071ZM42.0133 14.409H40.9118C40.7074 14.409 40.5114 14.4902 40.3668 14.6348C40.2223 14.7793 40.1411 14.9754 40.1411 15.1798V15.8646C40.1411 16.2132 39.8398 16.4798 39.4926 16.4486L39.4859 16.448C39.5289 16.5772 39.5525 16.7145 39.5525 16.8566V26.0388C39.5525 26.181 39.529 26.3182 39.4859 26.4475C40.2123 26.384 40.9187 26.1758 41.5634 25.8352C42.3156 25.4367 42.7839 24.6527 42.7839 23.8015V15.1798C42.7839 15.0786 42.764 14.9783 42.7253 14.8848C42.6866 14.7913 42.6298 14.7063 42.5583 14.6347C42.4867 14.5632 42.4017 14.5064 42.3082 14.4677C42.2147 14.4289 42.1145 14.409 42.0133 14.409Z" fill="#C8CEFC"/>
<path d="M41.5657 20.1222C40.959 20.4436 40.2785 20.6537 39.5547 20.7269V26.0387C39.5547 26.1809 39.5313 26.3181 39.4883 26.4474C40.2371 26.3808 40.9405 26.1665 41.5658 25.8351C42.318 25.4366 42.7863 24.6526 42.7863 23.8013V18.0884C42.7863 18.9397 42.3179 19.7237 41.5657 20.1222Z" fill="#B8C0F4"/>
<path d="M38.3541 27.4033H38.2476C37.497 27.4033 36.8828 26.7893 36.8828 26.0387V16.8565C36.8828 16.1059 37.497 15.4917 38.2476 15.4917H38.3541C39.1047 15.4917 39.7189 16.1059 39.7189 16.8565V26.0387C39.7187 26.7893 39.1047 27.4033 38.3541 27.4033Z" fill="#E3E7FC"/>
<path d="M15.0948 14.4092H16.1963C16.4007 14.4092 16.5967 14.4904 16.7413 14.6349C16.8858 14.7795 16.967 14.9755 16.967 15.1799V15.8648C16.967 16.2134 17.2683 16.48 17.6155 16.4487L17.6222 16.4481C17.5782 16.5799 17.5558 16.7179 17.5558 16.8568V26.039C17.5558 26.1811 17.5792 26.3184 17.6222 26.4476C16.8958 26.3841 16.1895 26.1759 15.5447 25.8353C14.7925 25.4369 14.3242 24.6529 14.3242 23.8016V15.1799C14.3242 15.0787 14.3441 14.9785 14.3828 14.885C14.4216 14.7915 14.4783 14.7065 14.5499 14.6349C14.6214 14.5634 14.7064 14.5066 14.7999 14.4679C14.8934 14.4291 14.9936 14.4092 15.0948 14.4092Z" fill="#B8C0F4"/>
<path d="M17.5557 20.6097C16.8319 20.5365 16.1513 20.3264 15.5447 20.005C14.7925 19.6065 14.3242 18.8226 14.3242 17.9712V23.8013C14.3242 24.6525 14.7926 25.4365 15.5447 25.8351C16.17 26.1663 16.8734 26.3807 17.6222 26.4474C17.5782 26.3156 17.5558 26.1776 17.5558 26.0387V20.6097H17.5557Z" fill="#A4B0EA"/>
<path d="M18.7553 27.4033H18.8619C19.6125 27.4033 20.2267 26.7893 20.2267 26.0387V16.8565C20.2267 16.1059 19.6126 15.4917 18.8619 15.4917H18.7553C18.0047 15.4917 17.3906 16.1059 17.3906 16.8565V26.0387C17.3906 26.7893 18.0047 27.4033 18.7553 27.4033Z" fill="#E3E7FC"/>
<path d="M38.3548 21.6078H38.2481C37.4975 21.6078 36.8835 20.9936 36.8835 20.2432V26.0389C36.8835 26.7895 37.4975 27.4037 38.2481 27.4037H38.3548C39.1054 27.4037 39.7194 26.7896 39.7194 26.0389V20.2432C39.7195 20.9936 39.1054 21.6078 38.3548 21.6078ZM18.8619 21.6078H18.7553C18.0047 21.6078 17.3906 20.9936 17.3906 20.2432V26.0389C17.3906 26.7895 18.0047 27.4037 18.7553 27.4037H18.8619C19.6125 27.4037 20.2267 26.7896 20.2267 26.0389V20.2432C20.2266 20.9936 19.6125 21.6078 18.8619 21.6078Z" fill="#C8CEFC"/>
<path d="M33.664 36.0934C33.6299 35.9825 33.618 35.8659 33.6289 35.7503C33.6399 35.6348 33.6735 35.5226 33.7278 35.42C33.7822 35.3175 33.8562 35.2266 33.9456 35.1527C34.0351 35.0787 34.1382 35.0231 34.2491 34.989C36.0129 34.447 37.5961 33.7686 38.6135 33.2948C38.8004 33.2074 38.9673 33.0824 39.1039 32.9278C39.2404 32.7731 39.3437 32.5919 39.4072 32.3957L40.8004 28.0837C41.0728 27.2407 40.5716 26.6702 40.4669 26.3753C40.3632 26.165 40.3474 25.9222 40.4227 25.7003C40.498 25.4783 40.6584 25.2954 40.8686 25.1917C41.0788 25.088 41.3216 25.0722 41.5435 25.1475C41.7655 25.2228 41.9484 25.3832 42.0522 25.5934C42.1328 25.845 43.0091 26.9961 42.4824 28.6271L41.0892 32.939C40.9506 33.3666 40.7255 33.7611 40.428 34.098C40.1304 34.4349 39.7667 34.707 39.3596 34.8974C38.2916 35.3944 36.6283 36.107 34.7684 36.6785C34.2997 36.8228 33.8067 36.5579 33.664 36.0934Z" fill="#E3E7FC"/>
<path d="M29.5244 38.3062C28.6459 38.3062 27.9336 37.594 27.9336 36.7154C27.9336 35.8368 28.6457 35.1245 29.5244 35.1245C30.5288 35.1245 31.7227 34.9444 33.0728 34.5895C33.923 34.3656 34.7925 34.8735 35.0159 35.7232C35.2394 36.573 34.7319 37.4429 33.8821 37.6663C32.2679 38.0908 30.8018 38.3062 29.5244 38.3062Z" fill="#FF4155"/>
<path d="M31.1293 36.2069C31.1293 35.6914 31.3479 35.2278 31.6958 34.9004C30.8995 35.0487 30.172 35.1247 29.5244 35.1247C28.6459 35.1247 27.9336 35.837 27.9336 36.7155C27.9336 37.5942 28.6457 38.3063 29.5244 38.3063C30.4488 38.3063 31.4734 38.1918 32.58 37.9687C31.7533 37.8077 31.1293 37.0805 31.1293 36.2069Z" fill="#E80054"/>
<path d="M48.2295 2.1709H40.1516C35.8466 2.1709 32.3242 5.6932 32.3242 9.99832C32.3242 14.3034 35.8465 17.8257 40.1516 17.8257H45.6562C45.7817 17.8257 45.9022 17.8756 45.9909 17.9644C46.0797 18.0532 46.1296 18.1736 46.1296 18.2992V21.0443C46.1296 21.3545 46.4664 21.5488 46.7344 21.3926C48.2459 20.5113 48.9943 19.2851 49.3643 18.2534C49.4795 17.9321 49.743 17.6848 50.0746 17.6039C53.497 16.7689 56.057 13.6683 56.057 9.9982C56.0569 5.69332 52.5346 2.1709 48.2295 2.1709Z" fill="#50BCFB"/>
<path d="M32.3242 9.99832C32.3242 14.3034 35.8465 17.8257 40.1515 17.8257H42.6558C39.5195 14.7518 42.4321 10.9693 42.4321 10.9693L41.8497 9.04019C38.8553 5.52598 41.8497 2.17477 41.8497 2.17477L41.8439 2.1709H40.1516C35.8465 2.1709 32.3242 5.69332 32.3242 9.99832Z" fill="#35A9EF"/>
<path d="M38.6911 10.0926C38.6911 10.674 38.2199 11.1452 37.6385 11.1452C37.3594 11.1452 37.0916 11.0343 36.8942 10.8369C36.6968 10.6395 36.5859 10.3718 36.5859 10.0926C36.5859 9.81346 36.6968 9.54573 36.8942 9.34833C37.0916 9.15094 37.3594 9.04004 37.6385 9.04004C37.9177 9.04004 38.1854 9.15094 38.3828 9.34833C38.5802 9.54573 38.6911 9.81346 38.6911 10.0926ZM42.9014 10.0926C42.9014 10.674 42.4302 11.1452 41.8488 11.1452C41.2675 11.1452 40.7963 10.674 40.7963 10.0926C40.7963 9.51125 41.2675 9.04004 41.8488 9.04004C42.4302 9.04004 42.9014 9.51125 42.9014 10.0926ZM47.1118 10.0926C47.1118 10.674 46.6406 11.1452 46.0593 11.1452C45.4779 11.1452 45.0067 10.674 45.0067 10.0926C45.0067 9.51125 45.4779 9.04004 46.0593 9.04004C46.6406 9.04004 47.1118 9.51125 47.1118 10.0926ZM51.3223 10.0926C51.3223 10.674 50.8511 11.1452 50.2697 11.1452C49.6883 11.1452 49.2171 10.674 49.2171 10.0926C49.2171 9.51125 49.6883 9.04004 50.2697 9.04004C50.8511 9.04004 51.3223 9.51125 51.3223 10.0926Z" fill="white"/>
</svg>
