<svg width="60" height="60" viewBox="0 0 60 60" fill="none" xmlns="http://www.w3.org/2000/svg">
<g clip-path="url(#clip0_1056_351)">
<path d="M60 30C60 46.5686 46.5686 60 30 60C13.4314 60 0 46.5686 0 30C0 13.4314 13.4314 0 30 0C46.5686 0 60 13.4314 60 30Z" fill="#6D9860"/>
<path d="M45.4855 52.852C45.4855 55.9203 38.5518 58.4076 29.9986 58.4076C21.4455 58.4076 14.5117 55.9203 14.5117 52.852C14.5117 49.7837 21.4455 47.2964 29.9986 47.2964C38.5518 47.2964 45.4855 49.7837 45.4855 52.852Z" fill="#96BC8B"/>
<path d="M53.75 27.7554C53.75 40.871 43.1177 51.5034 30.002 51.5034C16.8862 51.5034 6.25391 40.871 6.25391 27.7554C6.25391 14.6397 16.8863 4.00732 30.002 4.00732C43.1176 4.00732 53.75 14.6396 53.75 27.7554Z" fill="#6D9860"/>
<path d="M41.3815 22.7901L39.9339 21.3425C39.9013 21.3098 39.8754 21.2711 39.8577 21.2284C39.84 21.1858 39.8309 21.14 39.8309 21.0939C39.8309 21.0477 39.84 21.002 39.8577 20.9593C39.8754 20.9167 39.9013 20.8779 39.9339 20.8453L41.3815 19.3976C41.4142 19.365 41.453 19.3391 41.4956 19.3214C41.5383 19.3037 41.584 19.2946 41.6302 19.2946C41.6763 19.2946 41.7221 19.3037 41.7647 19.3214C41.8074 19.3391 41.8461 19.365 41.8788 19.3976L43.3264 20.8453C43.359 20.8779 43.3849 20.9167 43.4026 20.9593C43.4203 21.002 43.4294 21.0477 43.4294 21.0939C43.4294 21.14 43.4203 21.1858 43.4026 21.2284C43.3849 21.2711 43.359 21.3098 43.3264 21.3425L41.8788 22.7901C41.8128 22.856 41.7234 22.893 41.6302 22.893C41.5369 22.893 41.4475 22.856 41.3815 22.7901ZM19.7158 25.8351L21.1634 24.3875C21.1961 24.3548 21.222 24.3161 21.2396 24.2734C21.2573 24.2308 21.2664 24.185 21.2664 24.1389C21.2664 24.0927 21.2573 24.047 21.2396 24.0043C21.222 23.9617 21.1961 23.9229 21.1634 23.8903L19.7158 22.4426C19.6832 22.41 19.6444 22.3841 19.6017 22.3664C19.5591 22.3487 19.5134 22.3396 19.4672 22.3396C19.421 22.3396 19.3753 22.3487 19.3326 22.3664C19.29 22.3841 19.2512 22.41 19.2186 22.4426L17.771 23.8903C17.7383 23.9229 17.7124 23.9617 17.6947 24.0043C17.6771 24.047 17.668 24.0927 17.668 24.1389C17.668 24.185 17.6771 24.2308 17.6947 24.2734C17.7124 24.3161 17.7383 24.3548 17.771 24.3875L19.2186 25.8351C19.2512 25.8678 19.29 25.8937 19.3326 25.9113C19.3753 25.929 19.421 25.9381 19.4672 25.9381C19.5134 25.9381 19.5591 25.929 19.6017 25.9113C19.6444 25.8937 19.6832 25.8678 19.7158 25.8351ZM36.9337 12.8783L38.3813 11.4306C38.414 11.398 38.4399 11.3592 38.4575 11.3166C38.4752 11.2739 38.4843 11.2282 38.4843 11.182C38.4843 11.1359 38.4752 11.0901 38.4575 11.0475C38.4399 11.0048 38.414 10.9661 38.3813 10.9334L36.9337 9.4858C36.901 9.45315 36.8623 9.42725 36.8196 9.40958C36.777 9.39191 36.7313 9.38281 36.6851 9.38281C36.6389 9.38281 36.5932 9.39191 36.5505 9.40958C36.5079 9.42725 36.4691 9.45315 36.4365 9.4858L34.9889 10.9334C34.9562 10.9661 34.9303 11.0048 34.9126 11.0475C34.895 11.0901 34.8859 11.1359 34.8859 11.182C34.8859 11.2282 34.895 11.2739 34.9126 11.3166C34.9303 11.3592 34.9562 11.398 34.9889 11.4306L36.4365 12.8783C36.5024 12.9442 36.5918 12.9812 36.6851 12.9812C36.7783 12.9812 36.8677 12.9442 36.9337 12.8783Z" fill="#C2A1D5"/>
<path d="M10.0337 38.3954C9.94539 38.23 9.85913 38.0635 9.77494 37.896C9.66922 37.6895 9.48617 37.5332 9.26569 37.4611C9.04521 37.3891 8.80518 37.4071 8.59793 37.5113C8.39068 37.6154 8.23301 37.7973 8.15929 38.0172C8.08557 38.2372 8.10178 38.4773 8.20439 38.6853C8.2951 38.8658 8.38804 39.0452 8.48318 39.2233C8.53754 39.3252 8.61142 39.4153 8.7006 39.4885C8.78978 39.5618 8.89252 39.6168 9.00296 39.6503C9.11339 39.6839 9.22935 39.6953 9.34421 39.6841C9.45907 39.6728 9.57059 39.639 9.6724 39.5846C9.878 39.4748 10.0316 39.2879 10.0993 39.0648C10.1671 38.8418 10.1435 38.601 10.0337 38.3954ZM11.5129 40.7924C11.4046 40.6392 11.2982 40.4846 11.1938 40.3287C11.1296 40.2328 11.0471 40.1504 10.9511 40.0864C10.8551 40.0224 10.7474 39.9779 10.6341 39.9555C10.5209 39.9331 10.4044 39.9332 10.2912 39.9558C10.178 39.9785 10.0704 40.0232 9.97451 40.0874C9.8786 40.1516 9.79628 40.2341 9.73225 40.3301C9.66822 40.4261 9.62374 40.5338 9.60133 40.6471C9.57892 40.7603 9.57904 40.8768 9.60167 40.99C9.6243 41.1032 9.669 41.2108 9.73322 41.3067C9.84584 41.475 9.96056 41.6416 10.0774 41.8069C10.1586 41.9219 10.2662 42.0157 10.3913 42.0804C10.5163 42.1451 10.6551 42.1788 10.7959 42.1786C10.9569 42.1784 11.1148 42.134 11.2524 42.0502C11.3899 41.9664 11.5018 41.8465 11.5758 41.7034C11.6497 41.5604 11.683 41.3998 11.6719 41.2391C11.6609 41.0784 11.6059 40.9239 11.5129 40.7924ZM13.2787 42.9883C13.1522 42.8496 13.0273 42.7093 12.9043 42.5674C12.7516 42.3913 12.5352 42.283 12.3027 42.2664C12.0702 42.2499 11.8406 42.3264 11.6645 42.479C11.4883 42.6317 11.3801 42.8482 11.3635 43.0807C11.3469 43.3132 11.4234 43.5428 11.5761 43.7189C11.7088 43.8719 11.8434 44.0233 11.9798 44.173C12.0621 44.2635 12.1624 44.3357 12.2743 44.3851C12.3862 44.4344 12.5072 44.4598 12.6295 44.4596C12.7998 44.4595 12.9665 44.4098 13.1091 44.3168C13.2518 44.2237 13.3643 44.0912 13.4331 43.9353C13.5018 43.7795 13.5239 43.607 13.4965 43.4389C13.4691 43.2708 13.3934 43.1143 13.2787 42.9883ZM19.9993 48.0492C19.8305 47.9659 19.6627 47.8804 19.496 47.7928C19.2899 47.6868 19.0503 47.6666 18.8293 47.7364C18.6083 47.8063 18.4238 47.9606 18.3161 48.1658C18.2083 48.3709 18.1859 48.6104 18.2538 48.832C18.3217 49.0536 18.4744 49.2394 18.6786 49.3489C18.8583 49.4433 19.0391 49.5354 19.2213 49.6254C19.43 49.7259 19.6699 49.7399 19.8889 49.6645C20.1079 49.5891 20.2883 49.4302 20.3908 49.2225C20.4933 49.0148 20.5097 48.7751 20.4364 48.5554C20.3631 48.3356 20.206 48.1537 19.9993 48.0492ZM17.5544 46.6459C17.3974 46.5423 17.2417 46.4367 17.0873 46.3291C16.9926 46.2632 16.8858 46.2165 16.7731 46.1918C16.6603 46.1671 16.5438 46.1648 16.4302 46.1852C16.3166 46.2055 16.2081 46.248 16.1109 46.3103C16.0137 46.3725 15.9297 46.4533 15.8638 46.548C15.7978 46.6427 15.7511 46.7495 15.7264 46.8623C15.7017 46.975 15.6995 47.0915 15.7198 47.2052C15.7401 47.3188 15.7826 47.4273 15.8449 47.5245C15.9072 47.6216 15.988 47.7056 16.0827 47.7716C16.249 47.8874 16.4169 48.0013 16.5862 48.1131C16.7296 48.208 16.8977 48.2585 17.0696 48.2585C17.2587 48.2586 17.4427 48.1978 17.5945 48.085C17.7462 47.9723 17.8575 47.8136 17.912 47.6326C17.9664 47.4515 17.961 47.2577 17.8966 47.08C17.8322 46.9023 17.7122 46.75 17.5544 46.6459ZM15.303 44.9498C15.1601 44.8276 15.0187 44.7035 14.8788 44.5778C14.793 44.5006 14.6928 44.4411 14.584 44.4026C14.4751 44.3642 14.3598 44.3475 14.2445 44.3536C14.1293 44.3597 14.0164 44.3885 13.9122 44.4383C13.8081 44.488 13.7147 44.5578 13.6376 44.6436C13.5604 44.7294 13.5009 44.8296 13.4624 44.9385C13.4239 45.0473 13.4073 45.1626 13.4134 45.2779C13.4195 45.3931 13.4483 45.5061 13.498 45.6102C13.5478 45.7144 13.6176 45.8077 13.7034 45.8849C13.854 46.0203 14.0063 46.1539 14.1602 46.2855C14.3192 46.4219 14.5217 46.4968 14.7311 46.4966C14.9108 46.4967 15.0863 46.4417 15.2337 46.3391C15.3812 46.2364 15.4937 46.091 15.556 45.9225C15.6183 45.7539 15.6275 45.5703 15.5823 45.3964C15.537 45.2225 15.4396 45.0666 15.303 44.9498ZM41.9532 8.55069C42.1131 8.65054 42.2717 8.75225 42.4291 8.85585C42.5255 8.9194 42.6334 8.96333 42.7468 8.98512C42.8602 9.00691 42.9767 9.00614 43.0898 8.98285C43.2029 8.95955 43.3102 8.9142 43.4057 8.84938C43.5013 8.78455 43.5831 8.70153 43.6465 8.60507C43.7746 8.41036 43.8202 8.17273 43.7731 7.94443C43.7261 7.71614 43.5903 7.51588 43.3956 7.38772C43.2264 7.27622 43.0558 7.16683 42.8838 7.0596C42.6862 6.9399 42.4493 6.90284 42.2246 6.95645C41.9998 7.01006 41.8052 7.15002 41.6829 7.34604C41.5605 7.54206 41.5203 7.77837 41.5709 8.00382C41.6215 8.22928 41.7589 8.42574 41.9532 8.55069ZM7.04951 22.6086C7.12271 22.6279 7.1981 22.6377 7.2738 22.6378C7.46785 22.6376 7.65638 22.5731 7.81001 22.4546C7.96363 22.336 8.07374 22.17 8.12318 21.9824C8.17099 21.8007 8.22111 21.6196 8.27353 21.4392C8.33853 21.2154 8.31195 20.9748 8.19963 20.7706C8.0873 20.5663 7.89844 20.4151 7.67459 20.3501C7.45073 20.2851 7.21022 20.3116 7.00597 20.424C6.80172 20.5363 6.65045 20.7252 6.58544 20.949C6.52899 21.1436 6.47496 21.339 6.42337 21.5349C6.39396 21.6466 6.38683 21.7629 6.40238 21.8772C6.41793 21.9916 6.45586 22.1018 6.51401 22.2015C6.57215 22.3012 6.64937 22.3885 6.74125 22.4583C6.83314 22.5282 6.93788 22.5793 7.04951 22.6086ZM7.86595 19.7954C8.08218 19.8825 8.32413 19.8801 8.53859 19.7888C8.75306 19.6975 8.92248 19.5247 9.00959 19.3085C9.08 19.1337 9.15258 18.9598 9.22732 18.7868C9.27426 18.6807 9.29972 18.5663 9.30223 18.4503C9.30474 18.3343 9.28426 18.2189 9.24195 18.1108C9.19965 18.0028 9.13637 17.9042 9.05576 17.8207C8.97515 17.7372 8.87881 17.6706 8.77229 17.6245C8.66578 17.5785 8.5512 17.554 8.43517 17.5524C8.31914 17.5509 8.20395 17.5723 8.09626 17.6156C7.98856 17.6588 7.89049 17.7229 7.8077 17.8042C7.7249 17.8855 7.65903 17.9824 7.61388 18.0893C7.53327 18.2758 7.45498 18.4632 7.37904 18.6517C7.29195 18.8679 7.29432 19.1099 7.38563 19.3244C7.47694 19.5389 7.64972 19.7083 7.86595 19.7954ZM6.59119 25.5015C6.82226 25.5322 7.05606 25.4699 7.24118 25.3282C7.42631 25.1866 7.54759 24.9772 7.57837 24.7461C7.60322 24.5593 7.63029 24.3732 7.65959 24.1878C7.69601 23.9576 7.63948 23.7223 7.50243 23.5338C7.36539 23.3452 7.15905 23.2188 6.9288 23.1824C6.69856 23.1459 6.46328 23.2025 6.27472 23.3395C6.08616 23.4766 5.95976 23.6829 5.92334 23.9132C5.8917 24.1127 5.86252 24.3131 5.8358 24.5142C5.80507 24.7453 5.86739 24.9791 6.00905 25.1643C6.15071 25.3494 6.3601 25.4707 6.59119 25.5015ZM43.9316 45.5737C43.7838 45.6895 43.6345 45.8034 43.4838 45.9156C43.2967 46.0547 43.1726 46.2624 43.1387 46.493C43.1048 46.7236 43.1639 46.9583 43.303 47.1453C43.4421 47.3324 43.6498 47.4565 43.8804 47.4904C44.111 47.5244 44.3457 47.4653 44.5328 47.3262C44.6953 47.2053 44.8563 47.0824 45.0158 46.9575C45.1993 46.8137 45.3181 46.6029 45.3461 46.3715C45.3742 46.1402 45.3092 45.9071 45.1654 45.7236C45.0943 45.6328 45.0059 45.5568 44.9054 45.5001C44.8049 45.4434 44.6941 45.407 44.5796 45.3931C44.465 45.3792 44.3488 45.388 44.2376 45.419C44.1264 45.45 44.0224 45.5025 43.9316 45.5737ZM46.0388 43.7018C45.9062 43.8352 45.7719 43.9669 45.6361 44.0969C45.5527 44.1768 45.4859 44.2722 45.4394 44.3779C45.3929 44.4835 45.3677 44.5973 45.3652 44.7127C45.3627 44.8281 45.3829 44.9428 45.4248 45.0504C45.4666 45.158 45.5293 45.2562 45.6091 45.3396C45.6911 45.4254 45.7896 45.4937 45.8987 45.5403C46.0079 45.5869 46.1254 45.6108 46.244 45.6107C46.4706 45.6109 46.6884 45.5234 46.8518 45.3666C46.998 45.2265 47.1426 45.0846 47.2854 44.941C47.3681 44.8595 47.4339 44.7624 47.4788 44.6552C47.5238 44.5481 47.5471 44.4331 47.5474 44.317C47.5476 44.2008 47.5248 44.0857 47.4803 43.9784C47.4358 43.8711 47.3705 43.7736 47.2881 43.6917C47.2057 43.6098 47.1079 43.5451 47.0003 43.5012C46.8928 43.4573 46.7776 43.4352 46.6614 43.4362C46.5452 43.4371 46.4304 43.461 46.3235 43.5066C46.2167 43.5522 46.1199 43.6186 46.0388 43.7018ZM39.1088 48.4641C38.9373 48.5397 38.7648 48.6131 38.5913 48.6844C38.3761 48.7732 38.205 48.9438 38.1154 49.1587C38.0259 49.3736 38.0252 49.6152 38.1137 49.8306C38.2021 50.0459 38.3723 50.2174 38.5871 50.3074C38.8018 50.3974 39.0434 50.3985 39.259 50.3105C39.4462 50.2335 39.6325 50.1542 39.8177 50.0727C40.031 49.9787 40.1982 49.8038 40.2826 49.5865C40.367 49.3693 40.3616 49.1274 40.2676 48.9141C40.2211 48.8084 40.1542 48.713 40.0708 48.6332C39.9874 48.5534 39.8891 48.4908 39.7814 48.449C39.6738 48.4072 39.5591 48.387 39.4436 48.3896C39.3282 48.3922 39.2145 48.4175 39.1088 48.4641ZM41.61 47.1698C41.4489 47.2663 41.2867 47.3608 41.1234 47.4533C40.9545 47.549 40.8219 47.6979 40.7465 47.8769C40.6711 48.0558 40.6571 48.2547 40.7066 48.4424C40.7562 48.6302 40.8665 48.7962 41.0203 48.9147C41.1742 49.0332 41.363 49.0973 41.5571 49.0972C41.7087 49.0972 41.8576 49.0578 41.9893 48.983C42.1654 48.8832 42.3403 48.7814 42.514 48.6773C42.6138 48.6184 42.7011 48.5403 42.7706 48.4476C42.8402 48.3548 42.8907 48.2492 42.9192 48.1368C42.9478 48.0244 42.9538 47.9075 42.937 47.7927C42.9202 47.678 42.8808 47.5678 42.8212 47.4683C42.7615 47.3689 42.6828 47.2822 42.5896 47.2133C42.4963 47.1444 42.3903 47.0947 42.2777 47.0669C42.1651 47.0392 42.0482 47.034 41.9336 47.0517C41.819 47.0693 41.709 47.1095 41.61 47.1698ZM41.1602 7.05409C41.2112 6.95054 41.2413 6.83797 41.2488 6.72279C41.2563 6.60761 41.241 6.49208 41.2038 6.38281C41.1667 6.27353 41.1084 6.17264 41.0322 6.08591C40.9561 5.99917 40.8636 5.92828 40.76 5.87729C40.5779 5.78758 40.3947 5.70015 40.2104 5.61503C39.9989 5.51773 39.7574 5.50834 39.5389 5.58894C39.3205 5.66954 39.1429 5.83352 39.0453 6.0449C38.9476 6.25628 38.9378 6.49777 39.018 6.71636C39.0983 6.93494 39.262 7.11276 39.4732 7.21077C39.6444 7.28987 39.8145 7.37108 39.9834 7.45428C40.087 7.50528 40.1995 7.53538 40.3147 7.54286C40.4299 7.55035 40.5454 7.53508 40.6547 7.49792C40.764 7.46075 40.8649 7.40243 40.9516 7.32628C41.0383 7.25013 41.1092 7.15764 41.1602 7.05409ZM49.1317 41.4261C48.9473 41.2835 48.7138 41.2199 48.4826 41.2494C48.2514 41.2789 48.0414 41.399 47.8987 41.5834C47.7836 41.7322 47.6667 41.8795 47.5479 42.0254C47.403 42.2064 47.3355 42.4373 47.3601 42.6678C47.3847 42.8984 47.4994 43.1098 47.6792 43.2562C47.8589 43.4026 48.0893 43.472 48.32 43.4493C48.5507 43.4266 48.7631 43.3137 48.911 43.1352C49.0389 42.978 49.1649 42.8193 49.2889 42.659C49.4315 42.4747 49.4951 42.2412 49.4656 42.01C49.4361 41.7788 49.316 41.5688 49.1317 41.4261ZM53.337 25.8997C53.4611 25.8999 53.5838 25.8737 53.697 25.8231C53.8103 25.7724 53.9115 25.6984 53.9941 25.6058C54.0767 25.5132 54.1387 25.4042 54.1761 25.2859C54.2136 25.1676 54.2255 25.0428 54.2113 24.9196C54.1879 24.7184 54.1621 24.5175 54.1338 24.317C54.0992 24.0879 53.9756 23.8818 53.7898 23.7434C53.604 23.605 53.3711 23.5455 53.1418 23.5779C52.9124 23.6103 52.7051 23.7319 52.5649 23.9163C52.4247 24.1007 52.3629 24.333 52.3931 24.5627C52.4195 24.7485 52.4434 24.935 52.4651 25.1221C52.4899 25.336 52.5924 25.5333 52.7532 25.6767C52.9139 25.82 53.1217 25.8994 53.337 25.8997ZM53.0297 22.9937C53.2561 22.9382 53.4511 22.795 53.5719 22.5956C53.6928 22.3963 53.7295 22.1571 53.674 21.9307C53.6257 21.7339 53.575 21.5378 53.5219 21.3423C53.4916 21.2309 53.4397 21.1266 53.3691 21.0353C53.2985 20.944 53.2106 20.8674 53.1104 20.8101C53.0102 20.7527 52.8997 20.7157 52.7853 20.701C52.6708 20.6864 52.5545 20.6944 52.4431 20.7247C52.3318 20.755 52.2274 20.8069 52.1361 20.8775C52.0448 20.9481 51.9683 21.036 51.9109 21.1362C51.8536 21.2363 51.8165 21.3468 51.8019 21.4613C51.7872 21.5758 51.7953 21.692 51.8256 21.8034C51.8748 21.9845 51.9218 22.1665 51.9667 22.3493C52.0222 22.5757 52.1654 22.7707 52.3648 22.8916C52.5641 23.0124 52.8032 23.0491 53.0297 22.9937ZM52.2613 20.1673C52.4789 20.0837 52.6544 19.9172 52.7492 19.7043C52.8441 19.4913 52.8504 19.2494 52.7669 19.0318C52.6944 18.8427 52.6195 18.6545 52.5422 18.4672C52.4511 18.2549 52.2802 18.087 52.0663 17.9998C51.8524 17.9126 51.6128 17.9131 51.3992 18.0012C51.1857 18.0893 51.0154 18.2579 50.9253 18.4705C50.8351 18.6832 50.8322 18.9228 50.9174 19.1375C50.9888 19.3111 51.0585 19.4858 51.1258 19.6615C51.1672 19.7692 51.2293 19.8678 51.3088 19.9515C51.3882 20.0353 51.4834 20.1026 51.5888 20.1495C51.6942 20.1965 51.8079 20.2222 51.9233 20.2253C52.0387 20.2283 52.1535 20.2086 52.2613 20.1673ZM30.9199 50.3551C30.7322 50.3626 30.5445 50.3679 30.3567 50.3708C30.125 50.3746 29.9041 50.4697 29.7422 50.6356C29.5802 50.8014 29.4904 51.0245 29.4921 51.2563C29.4939 51.488 29.5871 51.7097 29.7516 51.8731C29.916 52.0365 30.1383 52.1283 30.3701 52.1285L30.3839 52.1284C30.5865 52.1252 30.7886 52.1196 30.9901 52.1115C31.1054 52.1069 31.2187 52.0796 31.3235 52.0312C31.4283 51.9828 31.5225 51.9142 31.6008 51.8294C31.6791 51.7446 31.7399 51.6452 31.7797 51.5369C31.8196 51.4286 31.8378 51.3135 31.8331 51.1982C31.8138 50.7132 31.4078 50.3375 30.9199 50.3551ZM29.9007 4.24194C29.8809 3.7569 29.4694 3.37932 28.9867 3.39971C28.7838 3.40803 28.5815 3.41882 28.38 3.43194C28.264 3.43839 28.1504 3.46777 28.0459 3.51837C27.9413 3.56898 27.8478 3.63981 27.7708 3.72677C27.6938 3.81373 27.6348 3.91509 27.5972 4.025C27.5596 4.13491 27.5442 4.25118 27.5518 4.36709C27.5594 4.483 27.5899 4.59626 27.6415 4.7003C27.6932 4.80435 27.765 4.89712 27.8527 4.97326C27.9404 5.0494 28.0424 5.1074 28.1526 5.14389C28.2629 5.18039 28.3793 5.19466 28.4952 5.18589C28.6824 5.17358 28.8702 5.16362 29.0586 5.15589C29.1739 5.1512 29.2872 5.12383 29.3919 5.07536C29.4967 5.02689 29.5908 4.95825 29.669 4.87338C29.7472 4.78851 29.8079 4.68906 29.8477 4.58071C29.8874 4.47237 29.9055 4.35725 29.9007 4.24194ZM28.1026 50.2953C27.9152 50.2798 27.728 50.2619 27.541 50.2418C27.4258 50.2283 27.309 50.2379 27.1974 50.2698C27.0858 50.3018 26.9817 50.3555 26.891 50.4279C26.8003 50.5003 26.7248 50.5899 26.6689 50.6917C26.613 50.7934 26.5779 50.9052 26.5654 51.0206C26.553 51.1359 26.5635 51.2527 26.5964 51.364C26.6293 51.4753 26.6839 51.5789 26.7571 51.669C26.8303 51.7591 26.9206 51.8338 27.0228 51.8888C27.125 51.9438 27.2371 51.978 27.3526 51.9894C27.5535 52.0111 27.755 52.0303 27.9573 52.0471C28.1883 52.0641 28.4167 51.9891 28.5928 51.8386C28.7689 51.688 28.8785 51.4741 28.8976 51.2432C28.9168 51.0123 28.844 50.7832 28.6951 50.6057C28.5462 50.4282 28.3333 50.3167 28.1026 50.2953ZM26.9783 4.43378C26.8986 3.95495 26.4456 3.63116 25.9671 3.71108C25.7669 3.74436 25.5675 3.78022 25.3688 3.81843C25.141 3.86354 24.9403 3.997 24.8106 4.18964C24.6808 4.38229 24.6326 4.61845 24.6765 4.84653C24.7203 5.07462 24.8527 5.27607 25.0446 5.40687C25.2365 5.53767 25.4724 5.58719 25.7007 5.5446C25.8849 5.50921 26.0699 5.47604 26.2556 5.44511C26.4855 5.40678 26.6908 5.27872 26.8263 5.08907C26.9619 4.89942 27.0165 4.66372 26.9783 4.43378ZM24.102 4.98702C24.069 4.87641 24.0146 4.77338 23.9417 4.68382C23.8689 4.59427 23.7791 4.51995 23.6776 4.4651C23.576 4.41025 23.4646 4.37595 23.3498 4.36416C23.235 4.35237 23.1189 4.36333 23.0083 4.39639C22.8142 4.45436 22.6208 4.51476 22.4281 4.57757C22.2065 4.64987 22.0227 4.80726 21.9171 5.01509C21.8116 5.22293 21.7929 5.46419 21.8652 5.68581C21.9375 5.90742 22.0949 6.09124 22.3027 6.19682C22.5105 6.30239 22.7518 6.32108 22.9734 6.24878C23.1518 6.19053 23.3312 6.13452 23.5114 6.08061C23.7348 6.0139 23.9224 5.86121 24.0332 5.65613C24.144 5.45104 24.1687 5.21036 24.102 4.98702ZM38.4997 5.82503C38.5373 5.71592 38.5531 5.60046 38.5462 5.48525C38.5392 5.37004 38.5096 5.25733 38.459 5.15356C38.4085 5.04979 38.338 4.95699 38.2516 4.88046C38.1652 4.80393 38.0646 4.74517 37.9555 4.70753C37.7633 4.64125 37.5702 4.57734 37.3765 4.51581C37.2664 4.48084 37.1506 4.46791 37.0356 4.47774C36.9205 4.48757 36.8086 4.51998 36.7061 4.57312C36.6036 4.62625 36.5126 4.69907 36.4383 4.7874C36.3639 4.87573 36.3077 4.97785 36.2729 5.08792C36.2025 5.31011 36.2231 5.55119 36.3304 5.75812C36.4377 5.96505 36.6228 6.12089 36.845 6.19135C37.0251 6.24843 37.2042 6.30784 37.3822 6.36925C37.4772 6.40206 37.5738 6.41753 37.6688 6.41753C37.8518 6.41744 38.0301 6.36032 38.179 6.25412C38.3279 6.14793 38.44 5.99793 38.4997 5.82503ZM25.3148 49.8882C25.131 49.8495 24.9476 49.8085 24.7647 49.7652C24.5386 49.7134 24.3012 49.7532 24.1043 49.8757C23.9074 49.9983 23.7669 50.1937 23.7134 50.4194C23.66 50.6451 23.6979 50.8828 23.819 51.0807C23.9401 51.2785 24.1344 51.4205 24.3597 51.4757C24.5565 51.5222 24.7543 51.5665 24.9529 51.6083C25.181 51.6562 25.4188 51.6116 25.6141 51.4843C25.8093 51.3569 25.946 51.1573 25.994 50.9292C26.042 50.7011 25.9974 50.4633 25.87 50.2681C25.7426 50.0729 25.5429 49.9362 25.3148 49.8882ZM36.4672 49.4353C36.2879 49.4887 36.1076 49.5399 35.9263 49.5891C35.7013 49.65 35.5097 49.7978 35.3937 50C35.2777 50.2022 35.2468 50.4422 35.3077 50.6672C35.3582 50.8535 35.4685 51.018 35.6217 51.1353C35.7749 51.2527 35.9625 51.3164 36.1555 51.3166C36.2333 51.3166 36.3108 51.3062 36.3859 51.2858C36.5811 51.233 36.7754 51.1776 36.9689 51.12C37.0799 51.0874 37.1834 51.0332 37.2735 50.9605C37.3635 50.8879 37.4383 50.7981 37.4936 50.6964C37.5489 50.5948 37.5835 50.4832 37.5956 50.3681C37.6076 50.253 37.5968 50.1367 37.5638 50.0258C37.5308 49.9149 37.4762 49.8116 37.4031 49.7218C37.3301 49.6321 37.24 49.5577 37.1381 49.5028C37.0363 49.4479 36.9245 49.4137 36.8094 49.4021C36.6943 49.3906 36.578 49.4018 36.4672 49.4353ZM35.7056 4.93862C35.7293 4.82566 35.7304 4.70914 35.709 4.59572C35.6877 4.4823 35.6442 4.3742 35.581 4.2776C35.5178 4.181 35.4363 4.09779 35.3409 4.03272C35.2456 3.96764 35.1384 3.92198 35.0254 3.89835C34.8273 3.85682 34.6286 3.81775 34.4294 3.78116C34.3157 3.75971 34.1988 3.76095 34.0855 3.78481C33.9722 3.80866 33.8648 3.85466 33.7693 3.92016C33.6739 3.98566 33.5923 4.06937 33.5293 4.16648C33.4663 4.2636 33.4231 4.3722 33.4022 4.48606C33.3813 4.59992 33.383 4.71679 33.4074 4.82996C33.4318 4.94313 33.4783 5.05036 33.5442 5.14551C33.6102 5.24066 33.6943 5.32184 33.7917 5.38439C33.8891 5.44695 33.9979 5.48964 34.1118 5.51003C34.2971 5.54413 34.4816 5.58046 34.6653 5.61889C34.7249 5.63137 34.7855 5.63769 34.8464 5.63776C35.048 5.6374 35.2435 5.56774 35.3999 5.44046C35.5563 5.31318 35.6642 5.136 35.7056 4.93862ZM32.825 4.40964C32.8344 4.2946 32.8211 4.17883 32.7858 4.06894C32.7505 3.95906 32.6939 3.8572 32.6192 3.76918C32.5446 3.68117 32.4533 3.60873 32.3506 3.55599C32.248 3.50325 32.1359 3.47126 32.0209 3.46182C31.8191 3.44526 31.6172 3.4312 31.4151 3.41964C30.9297 3.39245 30.515 3.76218 30.4874 4.24675C30.474 4.47946 30.5537 4.70794 30.7088 4.88193C30.8639 5.05592 31.0818 5.16116 31.3145 5.17452C31.5027 5.1853 31.6904 5.19843 31.8774 5.21378C31.9925 5.2232 32.1082 5.20987 32.2181 5.17455C32.3279 5.13924 32.4298 5.08263 32.5178 5.00796C32.6058 4.93329 32.6782 4.84201 32.7309 4.73935C32.7836 4.63669 32.8156 4.52466 32.825 4.40964ZM33.7234 50.0683C33.5385 50.099 33.3527 50.1274 33.1661 50.1535C33.0518 50.1695 32.9418 50.2079 32.8423 50.2664C32.7428 50.3249 32.6558 50.4025 32.5863 50.4946C32.5168 50.5867 32.4661 50.6917 32.4371 50.8034C32.4081 50.9151 32.4014 51.0315 32.4174 51.1458C32.4334 51.2601 32.4718 51.3701 32.5303 51.4696C32.5888 51.5691 32.6663 51.6561 32.7585 51.7256C32.8506 51.7951 32.9555 51.8458 33.0673 51.8748C33.179 51.9038 33.2953 51.9105 33.4097 51.8945C33.6109 51.8664 33.8113 51.8357 34.0108 51.8026C34.2408 51.7645 34.4462 51.6366 34.5819 51.447C34.7176 51.2574 34.7724 51.0217 34.7342 50.7917C34.6961 50.5618 34.5682 50.3564 34.3786 50.2207C34.1891 50.085 33.9534 50.0302 33.7234 50.0683ZM22.6003 49.1362C22.4221 49.0746 22.2447 49.0107 22.0681 48.9446C21.8507 48.8668 21.6114 48.8776 21.4019 48.9747C21.1923 49.0719 21.0295 49.2477 20.9485 49.4639C20.8675 49.6802 20.8749 49.9197 20.9691 50.1306C21.0632 50.3415 21.2366 50.5068 21.4517 50.5909C21.6418 50.662 21.8332 50.7309 22.0255 50.7975C22.1179 50.8296 22.2151 50.846 22.3129 50.846C22.4957 50.8459 22.6739 50.7889 22.8228 50.6828C22.9716 50.5768 23.0837 50.4269 23.1435 50.2542C23.1812 50.1451 23.1971 50.0297 23.1903 49.9145C23.1834 49.7993 23.1539 49.6865 23.1035 49.5827C23.053 49.4789 22.9826 49.386 22.8963 49.3094C22.81 49.2328 22.7094 49.174 22.6003 49.1362Z" fill="white"/>
<path d="M25.6342 33.6248L18.9604 42.105C18.7805 42.3342 18.5464 42.5151 18.2791 42.6313C18.0119 42.7475 17.7199 42.7954 17.4295 42.7706C17.133 42.7458 16.8478 42.6458 16.6009 42.4798C16.4866 42.4401 16.3779 42.3858 16.2775 42.3182L10.8945 39.9269L9.22298 39.8295C8.44392 39.7858 7.85575 39.1193 7.90087 38.3439C7.94599 37.5686 8.61114 36.9767 9.38645 37.0218L11.4415 37.1415C11.6931 37.1558 11.9606 37.2584 12.1681 37.3314L16.7399 39.2409L22.8698 31.4526C23.4696 30.6893 24.5749 30.5566 25.338 31.1566C26.1015 31.7566 26.234 32.8616 25.6342 33.6248ZM34.6584 31.1567C35.4215 30.5567 36.5268 30.6894 37.1266 31.4527L43.2566 39.241L47.8527 37.3782C48.0613 37.2378 48.3039 37.156 48.555 37.1416L50.61 37.022C51.3853 36.9768 52.0504 37.5688 52.0956 38.3441C52.1407 39.1194 51.5525 39.7859 50.7734 39.8296L49.1019 39.927L43.7189 42.3184C43.6185 42.3859 43.5098 42.4402 43.3956 42.48C43.1486 42.6458 42.8634 42.7459 42.5669 42.7707C41.9974 42.8185 41.4156 42.588 41.036 42.1051L34.3623 33.6249C33.7626 32.8616 33.8952 31.7566 34.6584 31.1567Z" fill="#F6A96C"/>
<path d="M12.8399 39.1037L12.6804 39.4382C12.5674 39.6768 12.3796 39.8721 12.1456 39.9945C12.1045 40.0216 12.0602 40.0434 12.0136 40.0594L10.3074 40.6488C10.1989 40.6863 10.0818 40.6911 9.97062 40.6627C9.85944 40.6342 9.75907 40.5737 9.68197 40.4886C9.60487 40.4036 9.55444 40.2978 9.53694 40.1844C9.51944 40.0709 9.53564 39.9549 9.58353 39.8506L9.22306 39.8296C8.43439 39.7853 7.8413 39.1028 7.90282 38.3153C7.96306 37.5444 8.66009 36.9796 9.43189 37.0245L11.4414 37.1415C11.6925 37.1559 11.9351 37.2376 12.1437 37.378L12.4177 37.562C12.6613 37.7256 12.838 37.9713 12.9155 38.2543C12.993 38.5374 12.9662 38.8388 12.8399 39.1037ZM52.0936 38.3154C52.0334 37.5446 51.3364 36.9797 50.5646 37.0246L48.555 37.1417C48.304 37.156 48.0614 37.2377 47.8527 37.3781L47.5788 37.5621C47.3352 37.7257 47.1586 37.9714 47.0811 38.2544C47.0036 38.5374 47.0305 38.8388 47.1568 39.1036L47.3163 39.4381C47.4293 39.6767 47.6171 39.872 47.8511 39.9944C47.8913 40.0208 47.9354 40.0429 47.9831 40.0593L49.6893 40.6487C49.7978 40.6862 49.9149 40.691 50.0261 40.6625C50.1373 40.6341 50.2376 40.5735 50.3147 40.4885C50.3918 40.4035 50.4423 40.2977 50.4598 40.1843C50.4773 40.0708 50.4611 39.9548 50.4132 39.8505L50.7736 39.8295C51.5621 39.7854 52.1552 39.1029 52.0936 38.3154Z" fill="#FFBD86"/>
<path d="M31.1865 46.3121H26.9901C25.9694 46.3121 25.1029 45.5638 24.9542 44.554L23.5781 35.2099C23.2434 34.9339 22.9534 34.623 22.7171 34.2847C22.4473 33.8981 22.2969 33.386 22.2969 32.8531C22.2969 31.4917 23.1301 30.3882 24.1579 30.3882H30.1836C29.8181 32.3588 29.6346 34.359 29.6355 36.3632C29.6357 39.8335 30.1795 43.1765 31.1865 46.3121Z" fill="#E5F2FD"/>
<path d="M37.7064 32.8531C37.7064 33.3858 37.5561 33.8981 37.2862 34.2847C37.0494 34.624 36.7583 34.9356 36.4224 35.2122L35.0466 44.5539C34.8979 45.5637 34.0314 46.312 33.0107 46.312H30.6123C29.5523 43.2421 28.9766 39.9465 28.9766 36.5164C28.9766 34.4163 29.1924 32.3665 29.603 30.3882H35.8454C36.8731 30.3883 37.7064 31.4919 37.7064 32.8531Z" fill="white"/>
<path d="M36.6846 23.0424V23.7406C36.6846 24.5053 36.0648 25.1251 35.3002 25.1251H35.1979C34.5623 26.677 33.3599 27.9368 31.848 28.6466C31.8163 28.6615 31.7844 28.6759 31.7525 28.6899C31.753 28.7059 31.7532 28.7219 31.7532 28.738V31.1311C31.7532 32.009 31.0416 32.7207 30.1636 32.7207H29.8389C28.9609 32.7207 28.2492 32.009 28.2492 31.1311V28.738C28.2492 28.7219 28.2495 28.7059 28.2499 28.6899C28.2179 28.6759 28.1861 28.6615 28.1544 28.6466C26.6426 27.9368 25.4401 26.677 24.8046 25.1251H24.7048C23.9401 25.1251 23.3203 24.5053 23.3203 23.7406V23.0424C23.3203 22.4155 23.7371 21.8859 24.3088 21.7155V20.6855C24.3088 20.4338 24.3227 20.1855 24.3498 19.9412C25.0854 13.3035 34.9172 13.3035 35.6528 19.9412C35.6798 20.1855 35.6938 20.4338 35.6938 20.6855V21.7147C36.2666 21.8843 36.6846 22.4146 36.6846 23.0424Z" fill="#F6A96C"/>
<path d="M35.6944 20.6854V22.5946C35.6944 25.271 34.121 27.5797 31.8488 28.6466C31.8068 28.6663 31.7645 28.6851 31.7222 28.7034C31.6797 28.6851 31.6375 28.6662 31.5956 28.6466C29.3234 27.5797 27.75 25.271 27.75 22.5946V20.6854C27.75 20.4339 27.7638 20.1855 27.7909 19.9412C28.0778 17.3529 29.7477 15.7739 31.7222 15.2041C33.6966 15.7739 35.3666 17.3529 35.6534 19.9412C35.6804 20.1856 35.6944 20.4339 35.6944 20.6854Z" fill="#FFBD86"/>
<path d="M52.758 39.0139L52.4813 39.7206C51.987 40.9831 50.2004 40.9831 49.7061 39.7206L49.3433 38.794C49.0349 38.0063 48.1335 37.633 47.3586 37.9719L46.4469 38.3706C45.2046 38.9138 43.9412 37.6504 44.4844 36.4081L44.8831 35.4964C45.222 34.7215 44.8487 33.82 44.061 33.5117L43.1344 33.1489C41.8719 32.6546 41.8719 30.868 43.1344 30.3737L44.061 30.0109C44.8487 29.7025 45.222 28.8011 44.8831 28.0262L44.4844 27.1145C43.9412 25.8722 45.2046 24.6088 46.4469 25.152L47.3586 25.5507C47.4113 25.5738 47.4646 25.5935 47.5183 25.6101C47.6367 25.6466 48.3049 27.9766 48.6035 29.0958C47.8911 29.7615 47.4459 30.7094 47.4459 31.7613C47.4459 33.7375 49.0175 35.3468 50.9791 35.4072C51.5726 36.6092 52.1655 37.8114 52.758 39.0139Z" fill="#35A9EF"/>
<path d="M59.0531 33.1489L58.1265 33.5117C57.3389 33.82 56.9655 34.7214 57.3045 35.4964L57.7031 36.4081C58.2464 37.6504 56.983 38.9138 55.7407 38.3706L54.829 37.9719C54.054 37.633 53.1526 38.0063 52.8443 38.7939L52.7582 39.0139C51.8155 37.8628 50.9841 36.6248 50.2751 35.3168C50.5383 35.3771 50.8123 35.409 51.0939 35.409C53.1084 35.409 54.7417 33.7759 54.7417 31.7612C54.7417 29.7465 53.1083 28.1135 51.0938 28.1135C49.8578 28.1135 48.7654 28.7282 48.1056 29.6687C47.7839 28.3338 47.5799 26.9733 47.4961 25.6029C48.2373 25.8443 49.053 25.47 49.3434 24.7285L49.7063 23.8019C50.2005 22.5393 51.9872 22.5393 52.4815 23.8019L52.8443 24.7285C53.1526 25.5161 54.054 25.8895 54.829 25.5506L55.7407 25.1519C56.983 24.6086 58.2464 25.872 57.7031 27.1143L57.3045 28.0261C56.9655 28.801 57.3389 29.7024 58.1265 30.0107L59.0531 30.3736C60.3156 30.868 60.3156 32.6546 59.0531 33.1489Z" fill="#50BCFB"/>
<path d="M51.0933 27.1484C48.5457 27.1484 46.4805 29.2136 46.4805 31.7613C46.4805 34.3088 48.5457 36.3741 51.0933 36.3741C53.6409 36.3741 55.7062 34.3089 55.7062 31.7613C55.7062 29.2136 53.6409 27.1484 51.0933 27.1484ZM51.0933 33.9959C49.8591 33.9959 48.8587 32.9954 48.8587 31.7613C48.8587 30.5271 49.8591 29.5266 51.0933 29.5266C52.3274 29.5266 53.328 30.5272 53.328 31.7613C53.328 32.9954 52.3274 33.9959 51.0933 33.9959Z" fill="#65BEFC"/>
<path d="M30.8093 12.5966C30.8093 12.9924 30.9462 13.3564 31.1751 13.6438C29.4084 14.4739 27.9627 16.5632 27.9627 19.0095H24.5195C24.5195 16.5632 25.7731 14.4739 27.5398 13.6438C27.2783 13.316 27.1491 12.9022 27.1777 12.4839C27.2357 11.5937 28.0041 10.915 28.8963 10.915H31.1791C31.3908 10.915 31.5934 10.9542 31.7801 11.0257C31.8009 11.0336 31.8009 11.0625 31.7808 11.0718C31.2071 11.3395 30.8093 11.9216 30.8093 12.5966Z" fill="#FFEF31"/>
<path d="M35.4807 19.0093H27.9609C27.9609 16.563 29.242 14.4737 31.0087 13.6435C30.7714 13.3461 30.6424 12.9768 30.643 12.5963C30.643 11.8691 31.1047 11.2496 31.751 11.0151C32.3973 11.2496 32.859 11.8691 32.859 12.5963C32.859 12.9974 32.7186 13.3657 32.4843 13.6547C34.2383 14.4922 35.4807 16.5738 35.4807 19.0093Z" fill="#FFF69A"/>
<path d="M17.5781 54.375C17.5781 53.534 18.2599 52.8521 19.1011 52.8521H24.1545C24.9955 52.8521 25.6774 53.5339 25.6774 54.375C25.6774 55.2161 24.9956 55.898 24.1545 55.898H19.1011C18.2599 55.898 17.5781 55.2161 17.5781 54.375ZM36.2686 52.6035L41.1345 53.9671C41.9443 54.1941 42.7849 53.7215 43.0118 52.9116C43.2388 52.1017 42.7662 51.2611 41.9563 51.0343L37.0904 49.6707C36.2805 49.4437 35.44 49.9163 35.2131 50.7262C34.9862 51.5359 35.4587 52.3765 36.2686 52.6035Z" fill="#F6A96C"/>
<path d="M29.4053 44.3491H35.089L36.2151 48.3265C36.6245 50.2054 35.1227 51.9691 33.1134 51.9691H27.7786C25.7693 51.9691 24.2676 50.2054 24.677 48.3265L24.8218 47.8149C25.4024 45.7645 27.2742 44.3491 29.4053 44.3491Z" fill="#00A86D"/>
<path d="M31.8349 51.9691H26.888C24.8787 51.9691 23.3771 50.2054 23.7863 48.3265L24.9126 44.3491H29.8594L28.7333 48.3265C28.3239 50.2054 29.8256 51.9691 31.8349 51.9691Z" fill="#00915D"/>
<path d="M22.9976 54.0239H18.1641C16.5461 54.0239 15.2344 52.7122 15.2344 51.0942C15.2344 49.4762 16.5461 48.1646 18.1641 48.1646H22.9976C24.6156 48.1646 25.9273 49.4762 25.9273 51.0942C25.9273 52.7124 24.6156 54.0239 22.9976 54.0239Z" fill="#00A86D"/>
<path d="M39.8429 51.0942C39.8429 52.7122 38.5312 54.0239 36.9132 54.0239H30.5457C30.2503 54.684 29.7203 55.211 29.0585 55.5026L25.0222 57.2879C23.5425 57.9424 21.8123 57.2735 21.1579 55.7938C20.8643 55.1327 20.8267 54.3862 21.0523 53.699C20.1094 53.2122 19.4648 52.2285 19.4648 51.0942C19.4648 49.4762 20.7765 48.1646 22.3945 48.1646H36.9132C38.5312 48.1646 39.8429 49.4762 39.8429 51.0942Z" fill="#1FB480"/>
<path d="M39.5287 50.8718L28.3733 55.8063C26.8936 56.4608 25.1634 55.7918 24.5089 54.3121C23.8544 52.8324 24.5234 51.1022 26.0031 50.4477L37.1585 45.5133C38.6382 44.8588 40.3684 45.5277 41.0229 47.0075C41.6774 48.4871 41.0085 50.2172 39.5287 50.8718Z" fill="#57BF93"/>
<path d="M55.8056 12.6729C55.8056 13.9141 55.4577 15.0741 54.8542 16.0605C54.7655 16.2055 54.6437 16.3273 54.4987 16.416C53.5123 17.0196 52.3523 17.3674 51.1111 17.3674C47.533 17.3674 44.6108 14.4452 44.6108 10.8671C44.6108 9.62543 44.959 8.46504 45.5631 7.47832C45.6513 7.33424 45.7724 7.21312 45.9165 7.12488C46.9032 6.52078 48.0636 6.17262 49.3054 6.17262C52.8834 6.17262 55.8057 9.09492 55.8056 12.6729ZM22.9071 9.98719C22.9071 11.8942 22.3726 13.6764 21.4452 15.1921C21.3089 15.4147 21.1218 15.6019 20.8991 15.7382C19.3834 16.6656 17.6012 17.2001 15.6942 17.2001C10.1968 17.2001 5.70691 12.7103 5.70703 7.21289C5.70703 5.30508 6.24199 3.52219 7.17012 2.00613C7.3057 1.78477 7.4918 1.59867 7.71316 1.46309C9.22922 0.534961 11.0121 0 12.9199 0C18.4173 0 22.9071 4.4898 22.9071 9.98719Z" fill="#96BC8B"/>
<path d="M45.1275 10.3515C45.1275 13.9414 48.0378 16.8516 51.6278 16.8516C52.8272 16.8516 53.9507 16.5268 54.9152 15.9603C53.7861 17.8826 51.6968 19.1731 49.3063 19.1731C45.7164 19.1731 42.8061 16.2629 42.8061 12.6729C42.8061 10.2823 44.0965 8.19322 46.0189 7.06412C45.4524 8.02857 45.1275 9.15205 45.1275 10.3515ZM6.50043 6.42041C6.50043 11.9362 10.9718 16.4076 16.4876 16.4076C18.3304 16.4076 20.0566 15.9085 21.5384 15.038C19.8036 17.9916 16.5938 19.9744 12.9208 19.9744C7.405 19.9744 2.93359 15.503 2.93359 9.98725C2.93359 6.31424 4.91641 3.10447 7.87 1.36963C6.99953 2.85146 6.50043 4.57764 6.50043 6.42041Z" fill="#82B174"/>
<path d="M51.9069 12.5369L49.4151 16.8779C49.3143 17.0534 49.0462 16.9819 49.0462 16.7795V13.1609C49.0462 13.0518 48.9577 12.9633 48.8486 12.9633H47.4038C47.3692 12.9633 47.3352 12.9542 47.3052 12.9369C47.2752 12.9196 47.2502 12.8947 47.2329 12.8648C47.2155 12.8348 47.2064 12.8008 47.2063 12.7661C47.2062 12.7315 47.2153 12.6975 47.2325 12.6674L49.7242 8.32645C49.825 8.15091 50.0932 8.22239 50.0932 8.42477V12.0434C50.0932 12.1525 50.1816 12.241 50.2907 12.241H51.7355C51.7702 12.241 51.8042 12.2501 51.8342 12.2674C51.8642 12.2847 51.8891 12.3096 51.9065 12.3396C51.9238 12.3695 51.933 12.4035 51.9331 12.4382C51.9331 12.4728 51.9241 12.5068 51.9069 12.5369ZM16.6968 9.35044H14.1258C14.0326 9.35044 13.9432 9.3134 13.8773 9.24747C13.8113 9.18154 13.7743 9.09211 13.7743 8.99887V2.55966C13.7743 2.19954 13.2971 2.07227 13.1178 2.38469L8.6839 10.1092C8.54937 10.3436 8.71858 10.6357 8.98882 10.6357H11.5598C11.653 10.6357 11.7425 10.6728 11.8084 10.7387C11.8743 10.8047 11.9114 10.8941 11.9114 10.9873V17.4265C11.9114 17.7866 12.3885 17.9139 12.5678 17.6015L17.0017 9.87684C17.1363 9.64259 16.9671 9.35044 16.6968 9.35044Z" fill="white"/>
<path d="M16.0353 32.5359L10.5956 37.2063C10.5198 37.2713 10.4232 37.307 10.3234 37.307C10.2235 37.307 10.1269 37.2713 10.0511 37.2063L2.96714 31.1241C1.50112 29.8654 0.995812 27.892 1.54331 26.1476C3.12394 24.7901 5.49769 24.7033 7.18484 26.0567L8.60069 27.1923L9.58226 26.405C11.5071 24.861 14.5094 25.0254 16.2542 26.7702C17.9049 28.4207 17.8064 31.0152 16.0353 32.5359Z" fill="#FF4155"/>
<path d="M10.6947 37.1213L9.04451 38.5381C8.92099 38.6442 8.76357 38.7025 8.60078 38.7025C8.43798 38.7025 8.28057 38.6442 8.15705 38.5381L1.54064 32.8575C-0.255845 31.315 -0.517524 28.6307 0.947202 26.7704C1.2198 26.4235 1.5428 26.1194 1.90544 25.8682C1.48392 27.7164 2.07958 29.7247 3.60935 31.038L10.6947 37.1213Z" fill="#E80054"/>
</g>
<defs>
<clipPath id="clip0_1056_351">
<rect width="60" height="60" fill="white"/>
</clipPath>
</defs>
</svg>
