<svg width="60" height="60" viewBox="0 0 60 60" fill="none" xmlns="http://www.w3.org/2000/svg">
<g clip-path="url(#clip0_1056_272)">
<path d="M16.6992 46.3759C16.6992 45.7944 17.1723 45.3212 17.7539 45.3212H55.3923C57.6927 41.2491 59.0039 36.566 59.0039 31.582C59.0039 15.8872 46.0184 3.16406 30 3.16406C13.9816 3.16406 0.996094 15.8872 0.996094 31.582C0.996094 37.4047 2.78484 42.818 5.85129 47.3245L16.8282 46.8806C16.7434 46.7259 16.6991 46.5523 16.6992 46.3759Z" fill="#48A23F"/>
<path d="M21.4089 53.6416C21.1879 53.6417 20.9725 53.5724 20.7931 53.4435C20.6137 53.3145 20.4794 53.1324 20.4091 52.9229L18.5633 47.4307H17.7539C17.1723 47.4307 16.6992 46.9575 16.6992 46.376C16.6992 45.7945 17.1723 45.3213 17.7539 45.3213H55.7227C56.3043 45.3213 56.7773 45.7945 56.7773 46.376C56.7773 46.9575 56.3043 47.4307 55.7227 47.4307H54.9132L53.0674 52.9229C52.9972 53.1324 52.8629 53.3145 52.6834 53.4435C52.504 53.5724 52.2886 53.6417 52.0677 53.6416H21.4089Z" fill="#D6EFFE"/>
<path d="M21.4072 53.6415C21.1863 53.6415 20.971 53.5721 20.7916 53.4432C20.6122 53.3142 20.4779 53.1322 20.4075 52.9228L20.2655 52.5C20.1298 52.4592 19.9937 52.4202 19.8571 52.3828H10.9745L10.3711 52.5C15.5361 57.1552 22.4272 60 29.9984 60C36.93 60 43.2925 57.6163 48.2816 53.6415H21.4072Z" fill="#7CBD6F"/>
<path d="M34.5109 16.1616C34.5109 16.4227 34.4822 16.6813 34.4279 16.9342H50.178V13.239C50.178 13.0667 50.1096 12.9015 49.9878 12.7796C49.8659 12.6578 49.7007 12.5894 49.5284 12.5894H33.7671C33.609 12.8011 33.4289 12.9956 33.2299 13.1694L33.1289 13.2577L33.2299 13.3459C33.632 13.6967 33.9543 14.1294 34.1753 14.615C34.3962 15.1007 34.5107 15.628 34.5109 16.1616Z" fill="white"/>
<path d="M33.3086 13.2577C34.1178 13.9644 34.6296 15.0029 34.6296 16.1616C34.6296 16.3852 34.6095 16.6038 34.573 16.817H35.9159V13.239C35.9159 13.0667 35.9843 12.9015 36.1062 12.7796C36.228 12.6578 36.3933 12.5894 36.5656 12.5894H33.9129C33.7381 12.8348 33.5353 13.0591 33.3086 13.2577Z" fill="#EAF6FF"/>
<path d="M50.9159 34.5702H35.8425L34.9812 34.6874V45.3211H51.739V34.6874L50.9159 34.5702ZM51.6574 21.4964L50.1797 16.8169H34.452C34.369 17.2832 34.198 17.7295 33.9482 18.1319L33.9023 18.2052L34.9812 19.448V26.9605L35.7918 27.0777H50.945C51.2098 27.0401 51.4746 27.0021 51.7389 26.9605V22.0256C51.7389 21.8461 51.7115 21.6676 51.6574 21.4964Z" fill="#50BCFB"/>
<path d="M41.212 23.4441C39.9202 23.4441 38.8729 22.3969 38.8729 21.1051C38.8729 20.6807 38.9876 20.284 39.1851 19.9409C38.627 20.3684 38.2656 21.0395 38.2656 21.7968C38.2656 23.0886 39.3128 24.1359 40.6047 24.1359C41.4722 24.1359 42.2277 23.6624 42.6314 22.961C42.2377 23.2628 41.7466 23.4441 41.212 23.4441Z" fill="#35A9EF"/>
<path d="M34.9805 26.9604H51.7383V34.6873H34.9805V26.9604Z" fill="white"/>
<path d="M41.2141 23.4442C42.5059 23.4442 43.5531 22.397 43.5531 21.1052C43.5531 19.8133 42.5059 18.7661 41.2141 18.7661C39.9222 18.7661 38.875 19.8133 38.875 21.1052C38.875 22.397 39.9222 23.4442 41.2141 23.4442Z" fill="white"/>
<path d="M40.138 21.1052C40.138 20.0326 40.861 19.1307 41.8456 18.8548C41.6401 18.7965 41.4276 18.7667 41.2141 18.7661C39.9223 18.7661 38.875 19.8133 38.875 21.1052C38.875 22.3969 39.9222 23.4442 41.2141 23.4442C41.4332 23.4442 41.6445 23.4119 41.8456 23.3555C40.861 23.0797 40.138 22.1778 40.138 21.1052Z" fill="#EAF6FF"/>
<path d="M18.6708 4.70445L18.6864 4.7041C18.7796 4.7041 18.8663 4.7409 18.9304 4.80781C18.9945 4.87473 19.0275 4.96332 19.0234 5.05695C18.9663 6.36922 18.3255 7.72977 17.2656 8.78984C17.0122 9.04289 16.7386 9.27476 16.4474 9.48312L16.2305 9.63828L16.4916 9.69312C17.0951 9.81992 17.6327 10.1325 18.0462 10.597L18.0785 10.6334L18.1271 10.6361C18.2614 10.6436 18.3864 10.6563 18.5091 10.6749L18.6882 10.702L18.6394 10.5274C18.4494 9.84875 18.459 9.15383 18.665 8.55969C19.1536 8.59754 19.6512 8.76852 20.1095 9.05691L20.2295 9.1325L20.2809 9.00031C20.8004 7.66566 22.0559 6.73426 23.4797 6.62727L23.6084 6.61754L23.5863 6.49039C23.5493 6.27801 23.5306 6.06285 23.5302 5.84727C23.5302 4.76457 23.9934 3.78828 24.7315 3.10508C24.0263 2.32906 23.0088 1.8418 21.8776 1.8418C20.0718 1.8418 18.5564 3.08363 18.1377 4.75988C18.3142 4.73121 18.4922 4.7127 18.6708 4.70445Z" fill="#8BC727"/>
<path d="M20.1289 9.07022C20.5797 9.35815 20.9845 9.75471 21.2971 10.2322C21.4696 10.4954 21.6107 10.7777 21.7177 11.0735L21.8279 11.3787L21.938 11.0735C22.045 10.7777 22.1862 10.4954 22.3586 10.2322C22.9876 9.27166 23.9889 8.63732 24.9893 8.55986C25.1953 9.15377 25.2049 9.84881 25.0149 10.5276L24.9661 10.7022L25.1452 10.6751C25.345 10.6448 25.5468 10.6295 25.7489 10.6293C26.5924 10.6293 27.3935 10.9068 27.962 11.3935C27.8184 11.6896 27.618 11.9669 27.3656 12.2186L27.2589 12.3249L27.3882 12.4022C29.29 13.5399 30.4714 15.6123 30.4714 17.8105C30.4711 18.0157 30.4609 18.2207 30.4408 18.4248L30.4359 18.475L31.5768 19.7896L33.4271 17.6579L33.9832 18.2986C34.4057 17.6662 34.6307 16.9224 34.6296 16.1618C34.6296 15.0031 34.1177 13.9646 33.3085 13.2579C34.1177 12.5512 34.6296 11.5126 34.6296 10.354C34.6296 8.32326 33.0593 6.66061 31.0668 6.51096C31.1042 6.29545 31.1248 6.07408 31.1248 5.84791C31.1248 3.71873 29.3988 1.99268 27.2696 1.99268C25.1404 1.99268 23.4144 3.71873 23.4144 5.84791C23.4144 6.0742 23.435 6.29545 23.4724 6.51096C21.9216 6.62697 20.6268 7.66033 20.1289 9.07022Z" fill="#97D729"/>
<path d="M27.9619 11.3932C27.7954 11.7368 27.5532 12.0509 27.2557 12.3213C27.5701 12.4983 27.8688 12.7019 28.1484 12.9298V7.5C28.1484 7.01461 27.755 6.62109 27.2695 6.62109C26.784 6.62109 26.3906 7.01461 26.3906 7.5V10.6843C26.9904 10.7873 27.5402 11.0324 27.9619 11.3932Z" fill="#BBEC6C"/>
<path d="M13.8587 9.63043C14.5863 8.46558 15.0274 6.9425 15.0274 5.27504C15.0274 3.21336 14.3536 1.37199 13.297 0.156287C13.2546 0.107235 13.2021 0.0678905 13.1431 0.0409239C13.0841 0.0139572 13.02 0 12.9551 0C12.8902 0 12.8261 0.0139572 12.7671 0.0409239C12.7081 0.0678905 12.6556 0.107235 12.6132 0.156287C11.5566 1.37199 10.8828 3.21336 10.8828 5.27504C10.8828 6.9425 11.3239 8.46558 12.0515 9.63043H13.8587Z" fill="#017B4E"/>
<path d="M9.5336 9.67207C9.69463 9.64446 9.85771 9.63054 10.0211 9.63047H12.7918C12.6079 8.505 12.0215 7.34168 11.0593 6.37945C9.93637 5.25656 8.53949 4.64356 7.24867 4.58742C7.18554 4.58443 7.12247 4.59466 7.06352 4.61746C7.00457 4.64026 6.95103 4.67512 6.90634 4.71981C6.86164 4.76451 6.82678 4.81805 6.80398 4.877C6.78118 4.93595 6.77095 4.99901 6.77395 5.06215C6.83008 6.35297 7.44309 7.74985 8.56598 8.87274C8.86246 9.16924 9.18645 9.43689 9.5336 9.67207ZM15.8954 9.63047C16.0601 9.63047 16.223 9.64489 16.3827 9.67207C16.7299 9.43687 17.0539 9.16922 17.3505 8.87274C18.4734 7.74985 19.0864 6.35297 19.1425 5.06215C19.1455 4.99901 19.1353 4.93595 19.1125 4.877C19.0897 4.81805 19.0548 4.76451 19.0101 4.71981C18.9654 4.67512 18.9119 4.64026 18.8529 4.61746C18.794 4.59466 18.7309 4.58443 18.6678 4.58742C17.377 4.64356 15.9801 5.25656 14.8572 6.37945C13.895 7.34168 13.3084 8.505 13.1247 9.63047H15.8954Z" fill="#026841"/>
<path d="M7.93018 18.1256L9.37416 19.7892L11.2244 17.6576L13.0747 19.7892L14.9249 17.6576L16.7753 19.7892L17.9296 18.4594L18.8538 13.0164C19.1649 11.1845 17.7534 9.51318 15.8953 9.51318H10.0212C8.16315 9.51318 6.75162 11.1846 7.06264 13.0164L7.93018 18.1256Z" fill="#FE860A"/>
<path d="M7.89244 17.9033L9.37416 19.6104L11.2244 17.4788L11.5462 17.8496L10.7256 13.0164C10.4146 11.1845 11.826 9.51318 13.6841 9.51318H10.0212C8.16315 9.51318 6.75162 11.1846 7.06264 13.0164L7.89244 17.9033Z" fill="#FE7701"/>
<path d="M27.3407 12.2393C26.8465 12.7207 26.1816 13.0766 25.4434 13.2305C25.1712 13.2875 24.8938 13.3164 24.6157 13.3168C24.08 13.3168 23.5549 13.2054 23.0974 12.9945L23.0467 12.9712L22.9966 12.9957C22.622 13.1796 22.2367 13.2861 21.8516 13.3122L21.8193 13.3145L21.8029 13.3122C21.4178 13.2861 21.0325 13.1796 20.6578 12.9957L20.6078 12.9712L20.557 12.9945C20.0995 13.2054 19.5744 13.3168 19.0386 13.3168C18.7638 13.3168 18.4854 13.2877 18.2111 13.2305C17.4728 13.0766 16.8079 12.7207 16.3137 12.2393C14.3786 13.3471 13.0664 15.4321 13.0664 17.81C13.0664 18.4036 13.1498 18.9784 13.3025 19.5249L14.9235 17.6573L16.7739 19.7889L18.6241 17.6573L20.4743 19.7889L22.3246 17.6573L24.1748 19.7889L26.0251 17.6573L27.8754 19.7889L29.7257 17.6573L30.5378 18.5929C30.5694 18.3361 30.5877 18.0752 30.5877 17.81C30.5878 15.4321 29.2757 13.3471 27.3407 12.2393Z" fill="#FD4755"/>
<path d="M16.7561 17.8103C16.7561 16.1063 17.4306 14.5534 18.5241 13.4015C18.411 13.3874 18.2986 13.3686 18.187 13.3454C17.391 13.1794 16.707 12.8003 16.2064 12.3013C14.33 13.4239 13.0664 15.4763 13.0664 17.8103C13.0664 18.3548 13.1357 18.884 13.2649 19.3898L14.9236 17.4788L16.7739 19.6105L16.9568 19.3998C16.8233 18.8805 16.7558 18.3464 16.7561 17.8103Z" fill="#E41F2D"/>
<path d="M25.1279 10.5591C25.335 9.81926 25.3119 9.07043 25.0696 8.4375C24.0353 8.48461 22.9563 9.10559 22.2607 10.168C22.0833 10.4387 21.9381 10.7293 21.828 11.0337C21.718 10.7293 21.5728 10.4388 21.3954 10.168C20.6998 9.10559 19.6208 8.48461 18.5865 8.4375C18.3441 9.07043 18.3211 9.81926 18.5282 10.5591C17.3689 10.3835 16.2676 10.7089 15.5508 11.3633C15.9727 12.3088 16.945 13.0862 18.1881 13.3455C19.0605 13.5275 19.912 13.4214 20.6071 13.1012C20.9925 13.2904 21.3967 13.4024 21.7958 13.4295C21.7964 13.4311 21.7969 13.4329 21.7976 13.4345C21.8078 13.434 21.818 13.4326 21.8282 13.432C21.8384 13.4326 21.8486 13.434 21.8588 13.4345C21.8593 13.4329 21.8598 13.4311 21.8605 13.4295C22.2598 13.4024 22.6638 13.2904 23.0493 13.1012C23.7443 13.4214 24.5958 13.5275 25.4682 13.3455C26.7114 13.0862 27.6837 12.3089 28.1055 11.3633C27.3885 10.7089 26.2871 10.3835 25.1279 10.5591Z" fill="#017B4E"/>
<path d="M16.8019 12.5774C17.5188 11.923 18.62 11.5975 19.7793 11.773C19.5722 11.0332 19.5952 10.2844 19.8376 9.65145C20.3575 9.67512 20.8884 9.84398 21.3764 10.1408C20.6802 9.09539 19.6117 8.48426 18.5865 8.4375C18.3441 9.07043 18.3211 9.81926 18.5282 10.5591C17.3689 10.3835 16.2676 10.7089 15.5508 11.3634C15.8198 11.9665 16.3137 12.5005 16.9581 12.876C16.9003 12.7795 16.8482 12.6798 16.8019 12.5774Z" fill="#026841"/>
<path d="M18.5635 47.4307H17.7541C17.1725 47.4307 16.6994 46.9575 16.6994 46.376C16.6994 45.7944 17.1725 45.3213 17.7541 45.3213H20.0185L20.0083 45.1947C19.9907 44.9885 19.9814 44.7817 19.9806 44.5747C19.9806 41.0615 22.3463 38.2033 25.2541 38.2033C28.1618 38.2033 30.5275 41.0615 30.5275 44.5747C30.5275 44.7626 30.5185 44.9653 30.4998 45.1947L30.4896 45.3213H31.5029L31.4927 45.1947C31.475 44.9885 31.4658 44.7817 31.465 44.5747C31.465 41.7535 32.991 39.3562 35.0978 38.5206V19.4044L33.4266 17.479L31.5763 19.6106L29.7261 17.479L27.8758 19.6106L26.0255 17.479L24.1752 19.6106L22.325 17.479L20.4747 19.6106L18.6244 17.479L16.7741 19.6106L14.9239 17.479L13.0736 19.6106L11.2233 17.479L9.37305 19.6106L7.52277 17.479L5.85156 19.4044V47.3247C7.14508 49.2244 8.66199 50.962 10.3697 52.5001H20.2673L18.5635 47.4307Z" fill="#FFBD86"/>
<path d="M10.7734 17.9973L9.37305 19.6106L7.52277 17.479L5.85156 19.4044V47.3247C7.14519 49.2243 8.66213 50.9619 10.3698 52.5H10.7734V17.9973Z" fill="#F6A96C"/>
<path d="M20.8882 41.0018C21.8378 39.3141 23.4395 38.2031 25.2521 38.2031C25.4848 38.2031 25.7134 38.2234 25.9382 38.2588C26.8048 37.0903 27.2716 35.6735 27.2695 34.2188C27.2695 30.465 24.2265 27.4219 20.4727 27.4219C16.7189 27.4219 13.6758 30.465 13.6758 34.2188C13.6758 37.9725 16.7189 41.0156 20.4727 41.0156C20.6113 41.0152 20.7499 41.0106 20.8882 41.0018Z" fill="white"/>
<path d="M20.7486 41.0094C20.8724 40.7832 21.0095 40.5645 21.1591 40.3545C18.8678 39.262 17.2833 36.9265 17.2833 34.2188C17.2833 31.0897 19.3984 28.4562 22.2764 27.6657C21.6888 27.504 21.0821 27.422 20.4727 27.4219C16.7189 27.4219 13.6758 30.465 13.6758 34.2188C13.6758 37.9725 16.7189 41.0156 20.4727 41.0156C20.5651 41.0156 20.6571 41.0132 20.7486 41.0094Z" fill="#EAF6FF"/>
<path d="M30.608 45.3211C30.6313 45.0759 30.6445 44.8271 30.6445 44.5746C30.6445 40.991 28.2311 38.0859 25.2539 38.0859C22.2768 38.0859 19.8633 40.991 19.8633 44.5746C19.8633 44.8273 19.8765 45.0761 19.8998 45.3211H30.608Z" fill="#F6A96C"/>
<path d="M23.405 45.2039C23.388 44.9946 23.3793 44.7846 23.3789 44.5746C23.3789 41.7321 24.898 39.3183 27.0117 38.4407C26.4606 38.2118 25.8696 38.0859 25.2539 38.0859C22.2768 38.0859 19.8633 40.991 19.8633 44.5746C19.8633 44.787 19.8724 44.9968 19.8889 45.2039H23.405Z" fill="#D88A55"/>
<path d="M42.0923 45.3211C42.1157 45.0759 42.1289 44.8271 42.1289 44.5746C42.1289 40.991 39.7154 38.0859 36.7383 38.0859C33.7611 38.0859 31.3477 40.991 31.3477 44.5746C31.3477 44.8273 31.3609 45.0761 31.3842 45.3211H42.0923Z" fill="#F6A96C"/>
<path d="M34.8894 45.2039C34.8723 44.9946 34.8636 44.7846 34.8633 44.5746C34.8633 41.7321 36.3824 39.3183 38.4961 38.4407C37.945 38.2118 37.354 38.0859 36.7383 38.0859C33.7611 38.0859 31.3477 40.991 31.3477 44.5746C31.3477 44.787 31.3568 44.9968 31.3733 45.2039H34.8894Z" fill="#D88A55"/>
<path d="M53.5767 45.3211C53.6 45.0759 53.6133 44.8271 53.6133 44.5746C53.6133 40.991 51.1998 38.0859 48.2227 38.0859C45.2455 38.0859 42.832 40.991 42.832 44.5746C42.832 44.8273 42.8453 45.0761 42.8686 45.3211H53.5767Z" fill="#F6A96C"/>
<path d="M46.3738 45.2039C46.3567 44.9946 46.348 44.7846 46.3477 44.5746C46.3477 41.7321 47.8668 39.3183 49.9805 38.4407C49.4293 38.2118 48.8384 38.0859 48.2227 38.0859C45.2455 38.0859 42.832 40.991 42.832 44.5746C42.832 44.787 42.8412 44.9968 42.8577 45.2039H46.3738Z" fill="#D88A55"/>
<path d="M18.4414 47.4307L20.2996 52.9603C20.3778 53.193 20.5271 53.3952 20.7264 53.5385C20.9257 53.6817 21.165 53.7588 21.4105 53.7588H52.0693C52.3148 53.7588 52.554 53.6817 52.7533 53.5384C52.9526 53.3952 53.1019 53.1929 53.1801 52.9603L55.0384 47.4307H18.4414Z" fill="#D6EFFE"/>
<path d="M25.8657 52.9603L24.0469 47.5479H18.4805L20.2993 52.9603C20.3775 53.193 20.5268 53.3952 20.7261 53.5385C20.9254 53.6817 21.1647 53.7588 21.4102 53.7588H26.9766C26.7311 53.7588 26.4918 53.6818 26.2925 53.5385C26.0932 53.3952 25.9439 53.193 25.8657 52.9603Z" fill="#B9E4FE"/>
<path d="M55.7227 47.5479H17.7539C17.1067 47.5479 16.582 47.0232 16.582 46.376C16.582 45.7288 17.1067 45.2041 17.7539 45.2041H55.7227C56.3699 45.2041 56.8945 45.7288 56.8945 46.376C56.8945 47.0232 56.3699 47.5479 55.7227 47.5479Z" fill="#EAF6FF"/>
<path d="M24.082 46.376C24.082 45.7288 24.6067 45.2041 25.2539 45.2041H17.7539C17.1067 45.2041 16.582 45.7288 16.582 46.376C16.582 47.0232 17.1067 47.5479 17.7539 47.5479H25.2539C24.6067 47.5479 24.082 47.0232 24.082 46.376Z" fill="#D6EFFE"/>
</g>
<defs>
<clipPath id="clip0_1056_272">
<rect width="60" height="60" fill="white"/>
</clipPath>
</defs>
</svg>
