<svg width="162" height="189" viewBox="0 0 162 189" fill="none" xmlns="http://www.w3.org/2000/svg">
<path d="M161.63 0.0200195H124.21V57.17C123.86 82.12 104.39 102.41 80.81 102.41C57.23 102.41 37.39 81.8 37.39 56.47V47.57H0V56.47C0 102.94 36.2499 140.74 80.8199 140.74C83.8799 140.74 86.92 140.5 89.95 140.14C75.0799 151.43 55.91 156.72 36.78 154.42L33.6299 154.04L29.68 186.93L32.83 187.31C37.57 187.88 42.25 188.16 46.86 188.16C98.37 188.16 140.22 153.26 149.43 100.84C157.08 87.98 161.36 73.1 161.61 57.82L161.64 0L161.63 0.0200195Z" fill="#6D9860"/>
<path d="M10.3901 34.42H56.3501C59.7201 34.42 62.4601 31.55 62.4601 28.01V19.48C62.4601 16.11 60.0601 13.16 56.8801 12.63L10.9201 4.93998C7.7101 4.39998 4.66007 5.10999 2.57007 6.87999C0.970068 8.22999 0.0900879 10.1 0.0900879 12.13V25.98C0.0900879 30.63 4.71008 34.4 10.3901 34.4V34.42Z" fill="#6D9860"/>
</svg>
