<svg width="458" height="487" viewBox="0 0 458 487" fill="none" xmlns="http://www.w3.org/2000/svg">
<path d="M201.4 135.5H171.12V124.55H170.75C165.64 134.4 153.05 138.96 141.2 138.96C109.09 138.96 90.3 113.78 90.3 84.78C90.3 51.58 114.2 30.78 141.2 30.78C157.8 30.78 167.11 38.81 170.75 45.01H171.12V34.25H201.4V135.5ZM145.76 110.69C164.73 110.69 171.12 94.64 171.12 84.79C171.12 72.57 162.73 59.07 145.58 59.07C128.43 59.07 120.59 73.66 120.59 85.16C120.59 94.65 127.52 110.7 145.76 110.7" fill="#6D9860"/>
<path d="M224.56 0.5H254.84V70.92H255.21L286.06 31.95H322L281.12 78.76L318.15 135.5H283.85L255.21 86.79H254.84V135.5H224.56V0.5Z" fill="#6D9860"/>
<path d="M422.5 103.75C417.58 115.06 410.46 123.82 401.89 129.66C393.5 135.68 383.46 138.78 373.07 138.78C344.06 138.78 319.43 115.25 319.43 85.14C319.43 56.86 341.69 30.77 372.52 30.77C403.35 30.77 425.97 55.22 425.97 86.05C425.97 90.06 425.6 91.71 425.24 94.08H349.35C351.18 106.12 361.21 113.23 373.07 113.23C382.37 113.23 387.3 109.03 391.5 103.74H422.51L422.5 103.75ZM395.68 73.65C394.4 67.63 388.38 56.32 372.69 56.32C357 56.32 350.98 67.63 349.7 73.65H395.67H395.68Z" fill="#6D9860"/>
<path d="M0 165.78H74.98V196.07H33.02V217.05H73.7001V247.33H33.02V270.5H74.98V300.78H0V165.78Z" fill="#6D9860"/>
<path d="M201.4 300.78H171.12V289.83H170.75C165.64 299.68 153.05 304.24 141.2 304.24C109.09 304.24 90.3 279.06 90.3 250.06C90.3 216.86 114.2 196.06 141.2 196.06C157.8 196.06 167.11 204.09 170.75 210.29H171.12V199.53H201.4V300.78ZM145.76 275.97C164.73 275.97 171.12 259.92 171.12 250.07C171.12 237.85 162.73 224.35 145.58 224.35C128.43 224.35 120.59 238.94 120.59 250.44C120.59 259.93 127.52 275.98 145.76 275.98" fill="#6D9860"/>
<path d="M254.9 199.53H269.5V222.52H254.9V300.79H224.62V222.52H214.58V199.53H224.62V165.78H254.9V199.53Z" fill="#6D9860"/>
<path d="M0 331.07H74.98V361.35H33.02V382.33H73.7001V412.62H33.02V435.79H74.98V466.07H0V331.07Z" fill="#6D9860"/>
<path d="M201.4 466.07H171.12V455.12H170.75C165.64 464.97 153.05 469.53 141.2 469.53C109.09 469.53 90.3 444.35 90.3 415.35C90.3 382.15 114.2 361.35 141.2 361.35C157.8 361.35 167.11 369.38 170.75 375.58H171.12V364.82H201.4V466.07ZM145.76 441.26C164.73 441.26 171.12 425.2 171.12 415.36C171.12 403.14 162.73 389.64 145.58 389.64C128.43 389.64 120.59 404.24 120.59 415.73C120.59 425.22 127.52 441.27 145.76 441.27" fill="#6D9860"/>
<path d="M266.52 393.28C266.34 391.09 265.97 385.62 257.03 385.62C250.65 385.62 248.46 389.63 248.46 392.37C248.46 397.84 255.94 400.94 263.97 403.32C281.12 408.06 299.36 413.17 299.36 435.06C299.36 456.95 280.57 469.54 258.13 469.54C242.8 469.54 219.64 462.61 216.9 435.97H247C248.28 445.27 257.22 445.27 258.49 445.27C263.6 445.27 269.07 442.35 269.07 437.43C269.07 429.59 261.59 428.67 242.25 421.19C229.11 416.99 218.17 408.42 218.17 394.74C218.17 374.67 236.41 361.35 257.39 361.35C270.71 361.35 293.69 366.64 296.25 393.28H266.51H266.52Z" fill="#6D9860"/>
<path d="M430.26 27.31C427.13 24.22 425.56 20.47 425.56 16.04C425.56 11.61 427.13 7.83 430.26 4.7C433.39 1.57 437.2 0 441.67 0C446.14 0 449.95 1.57 453.08 4.7C456.21 7.84 457.78 11.62 457.78 16.04C457.78 20.46 456.21 24.23 453.08 27.31C449.94 30.4 446.14 31.94 441.67 31.94C437.2 31.94 433.39 30.4 430.26 27.31ZM432.06 6.46C429.42 9.12 428.1 12.31 428.1 16.04C428.1 19.77 429.43 22.95 432.09 25.61C434.75 28.27 437.94 29.6 441.67 29.6C445.4 29.6 448.58 28.27 451.25 25.61C453.91 22.95 455.24 19.76 455.24 16.04C455.24 12.32 453.92 9.13 451.28 6.46C448.64 3.8 445.44 2.47 441.67 2.47C437.9 2.47 434.7 3.8 432.06 6.46ZM450.65 24.87H445.56L441.67 17.87H439.13V24.87H434.82V6.78H442.59C444.52 6.78 446.15 7.23 447.47 8.12C448.79 9.02 449.45 10.45 449.45 12.43C449.45 14.79 448.25 16.39 445.85 17.24L450.66 24.87H450.65ZM439.13 14.76H442.45C443.11 14.76 443.71 14.54 444.25 14.09C444.79 13.64 445.06 13.09 445.06 12.43C445.06 11.77 444.78 11.25 444.21 10.88C443.64 10.5 443.05 10.31 442.44 10.31H439.12V14.76H439.13Z" fill="#6D9860"/>
<path d="M90.3 0.5H0V30.78H27.9401V135.5H62.35V30.78H90.3V0.5Z" fill="#6D9860"/>
<path d="M412.17 361.48H387.25V399.54C387.02 416.15 374.05 429.67 358.35 429.67C342.65 429.67 329.43 415.95 329.43 399.08V393.15H304.53V399.08C304.53 430.03 328.67 455.2 358.35 455.2C360.39 455.2 362.41 455.04 364.43 454.8C354.53 462.32 341.76 465.84 329.02 464.31L326.92 464.06L324.29 485.96L326.39 486.21C329.55 486.59 332.66 486.78 335.73 486.78C370.03 486.78 397.9 463.54 404.04 428.63C409.14 420.07 411.98 410.16 412.15 399.98L412.17 361.47V361.48Z" fill="#6D9860"/>
<path d="M311.44 384.39H342.05C344.29 384.39 346.12 382.48 346.12 380.12V374.44C346.12 372.19 344.52 370.23 342.4 369.88L311.79 364.76C309.65 364.4 307.62 364.87 306.23 366.05C305.16 366.95 304.58 368.2 304.58 369.55V378.78C304.58 381.87 307.66 384.39 311.44 384.39Z" fill="#6D9860"/>
</svg>
