<svg width="72" height="72" viewBox="0 0 72 72" fill="none" xmlns="http://www.w3.org/2000/svg">
<rect width="72" height="72" rx="36" fill="#E0E9DD"/>
<path d="M53 45V27C53 25.34 51.6608 24 50.0018 24H21.9982C20.3392 24 19 25.34 19 27V45C19 46.66 20.3392 48 21.9982 48H50.0018C51.6608 48 53 46.66 53 45ZM50.3815 26.78C51.0412 27.44 50.6814 28.12 50.3216 28.46L42.2064 35.9L50.0018 44.02C50.2416 44.3 50.4015 44.74 50.1217 45.04C49.8618 45.36 49.2622 45.34 49.0024 45.14L40.2675 37.68L35.99 41.58L31.7325 37.68L22.9976 45.14C22.7378 45.34 22.1382 45.36 21.8783 45.04C21.5985 44.74 21.7584 44.3 21.9982 44.02L29.7936 35.9L21.6784 28.46C21.3186 28.12 20.9588 27.44 21.6185 26.78C22.2781 26.12 22.9577 26.44 23.5173 26.92L35.99 37L48.4827 26.92C49.0423 26.44 49.7219 26.12 50.3815 26.78Z" fill="#6D9860"/>
</svg>
