<svg width="72" height="72" viewBox="0 0 72 72" fill="none" xmlns="http://www.w3.org/2000/svg">
<rect width="72" height="72" rx="36" fill="#E0E9DD"/>
<path fill-rule="evenodd" clip-rule="evenodd" d="M36 18.5C32.6848 18.5 29.5054 19.817 27.1612 22.1612C24.817 24.5054 23.5 27.6848 23.5 31C23.5 33.85 24.9 37.22 26.9425 40.835C29.01 44.4925 31.86 48.6025 34.9825 52.9775L36 54.4025L37.0175 52.9775C40.1425 48.6025 42.99 44.4925 45.0575 40.835C47.1 37.22 48.5 33.85 48.5 31C48.5 29.3585 48.1767 27.733 47.5485 26.2165C46.9203 24.6999 45.9996 23.3219 44.8388 22.1612C43.6781 21.0004 42.3001 20.0797 40.7835 19.4515C39.267 18.8233 37.6415 18.5 36 18.5ZM36 24.75C34.3424 24.75 32.7527 25.4085 31.5806 26.5806C30.4085 27.7527 29.75 29.3424 29.75 31C29.75 32.6576 30.4085 34.2473 31.5806 35.4194C32.7527 36.5915 34.3424 37.25 36 37.25C37.6576 37.25 39.2473 36.5915 40.4194 35.4194C41.5915 34.2473 42.25 32.6576 42.25 31C42.25 29.3424 41.5915 27.7527 40.4194 26.5806C39.2473 25.4085 37.6576 24.75 36 24.75Z" fill="#6D9860"/>
</svg>
