<svg width="72" height="72" viewBox="0 0 72 72" fill="none" xmlns="http://www.w3.org/2000/svg">
<rect width="72" height="72" rx="36" fill="#E0E9DD"/>
<path d="M27.0333 33.9833C29.4333 38.7 33.3 42.55 38.0167 44.9667L41.6833 41.3C42.1333 40.85 42.8 40.7 43.3833 40.9C45.25 41.5167 47.2667 41.85 49.3333 41.85C50.25 41.85 51 42.6 51 43.5167V49.3333C51 50.25 50.25 51 49.3333 51C33.6833 51 21 38.3167 21 22.6667C21 21.75 21.75 21 22.6667 21H28.5C29.4167 21 30.1667 21.75 30.1667 22.6667C30.1667 24.75 30.5 26.75 31.1167 28.6167C31.3 29.2 31.1667 29.85 30.7 30.3167L27.0333 33.9833Z" fill="#6D9860"/>
</svg>
